<?xml version="1.0" encoding="UTF-8"?><svg id="Layer_1" xmlns="http://www.w3.org/2000/svg" width="201.48" height="238.05" viewBox="0 0 201.48 238.05"><g id="bamb_sort" opacity=".73"><path id="Path_693" d="m96.79,109.97c-1.14-2.03-1.9-2.29-2.55-3.72-.52-1.17-.72-2.46-.59-3.73,0-9.72-.07-19.53-.19-29.42-.17-13.3-.43-26.45-.79-39.43.07-1.93.61-3.82,1.57-5.5.88-1.51,1.58-1.85,2.36-3.53.51-1.11,1.65-3.51.79-4.71-.83-1.16-2.86-.3-9.29.33-4.86.47-7.28.72-9.28.26-1.56-.49-3.2-.71-4.84-.65-.6.04-3.89.26-4.25,1.63-.27,1.02,1.27,1.81,2.75,3.93,1.14,1.69,1.82,3.65,1.96,5.69.06,14.12.13,28.25.19,42.37-.06,9.81-.13,19.62-.19,29.43-.21,3.12-1.3,6.11-3.14,8.63-.25.25-1.52,1.54-1.17,2.74.29,1.03,1.6,1.47,2.74,1.76,4.11,1.06,7.49.6,12.36.4,3.32,0,6.62-.46,9.81-1.38.99-.31,2.38-.81,2.74-1.96.28-.88-.2-1.75-.98-3.14h0Zm-16.83-10.2c-.04,1.44-.15,5.46-.63,5.5-.39.02-.88-2.61-1.24-4.95-.47-20.58-.93-41.16-1.38-61.75.22-2.56.56-3.87,1.01-3.91.35-.03.76.68,1.24,2.15,1.12,45.26,1.11,58.48.99,62.97h0Z" fill="#e4995c"/><path id="Path_694" d="m99.34,205.31c-.6-1.13-1.09-1.28-1.76-2.35-.69-1.13-1.1-2.41-1.18-3.73-.46-23.21-.92-46.43-1.37-69.64-.08-1.01,0-2.03.26-3.01.42-1.63,1.08-2.24,1.7-3.66.37-.83,1.7-3.86.79-5.1-1.33-1.83-6.09,2-13.77,1.87-5.98-.1-10.03-2.54-11.21-.83-.7,1.02.02,2.93.3,3.67.64,1.69,1.51,2.1,2.31,3.52.8,1.58,1.14,3.35.98,5.11-.02,3.74.67,31.54,1.57,69.83-.12.77-.31,1.53-.58,2.26-.89,2.37-2.08,3.05-2.16,4.61-.05,1.01.3,2,.98,2.74,2.16,2.2,5.72-1.03,13.24-.49,2.12.16,4.25.19,6.38.1,2.63-.07,3.61-.25,4.12-.98.88-1.24-.38-3.52-.59-3.92h0Zm-16.41-11.52c-.02.16-.32,2.42-.72,2.42-.38,0-.67-2.02-.72-2.35-.12-.8-.16-1.61-.12-2.42.11-1.81-.24-25.05-.86-59.63.02-.66.11-1.32.26-1.97.08-.35.38-1.58.65-1.57.12.01.26.24.4,1.24.39,20.66.78,41.33,1.17,61.99.05.76.03,1.53-.07,2.28h0Z" fill="#e4995c"/><path id="Path_695" d="m66.09,115.17c-2.83-.15-6.09-.31-9.71-.46-5.24-.21-6.61-.18-8.32.09-3.28.6-6.38,1.96-9.04,3.98-6.09,4.15-17.6,11.89-32.42,22.22,9.6-1.6,19.2-3.2,28.81-4.8,9.89-1.07,14.89-4.3,17.4-6.5,1.28-1.12,2.14-2.08,7.23-6.96,2.95-2.82,5.4-5.11,7.05-6.64-22.42,9.11-33.67,13.57-33.74,13.38-.08-.19,10.84-4.96,32.76-14.32h0Z" fill="#e4995c"/><path id="Path_696" d="m70.62,122.35c-2.79.89-5.44,2.18-7.87,3.81-2.4,1.63-4.56,3.58-6.42,5.79-1.41,1.63-2.67,3.37-3.78,5.21-3.44,6.54-6.88,13.09-10.32,19.63,6.08-4.52,12.16-9.03,18.24-13.54,3.7-3.08,6.61-6.99,8.5-11.41,1.21-2.81,2-5.77,2.35-8.81-9.97,12.01-15.02,17.96-15.15,17.85-.13-.11,4.69-6.29,14.46-18.54h0Z" fill="#e4995c"/><path id="Path_697" d="m138.31,15.16c-.28-.67-1-1.17-5.62-1.83-2.42-.4-4.87-.66-7.32-.79-3.93-.15-5.96-.21-6.41.79-.31.69.33,1.3,1.05,3.4.46,1.34.77,2.74.91,4.16-1.11,8.05-2.2,16.17-3.26,24.36-1.1,8.48-2.14,16.89-3.14,25.23-.24.71-.59,1.37-1.04,1.97-1.17,1.55-2.29,1.65-2.74,2.88-.31.86-.22,1.83.26,2.61.59.89,1.62,1.08,5.38,1.39,4.38.36,6.21.38,7.3.36,1.87.13,3.74-.2,5.46-.95.75-.37,1.76-.88,1.86-1.71.11-.94-1.04-1.42-1.7-3.01-.29-.84-.42-1.73-.39-2.62,0-2.33,2.49-21.33,6.18-47.31.09-.96.35-1.9.76-2.78.56-1.19,1.04-1.43,1.64-2.61.53-1.03,1.28-2.49.84-3.54h0Zm-17.65,50.35c-.05.72-.23,1.43-.52,2.09-.42.94-1.2,2.09-1.57,1.97-.14-.05-.2-.26-.24-1.71-.03-.92-.03-1.69-.02-2.22,1.17-9.72,2.35-19.44,3.54-29.17.22-.8.76-2.52,1.31-2.48.69.04.99,2.93,1.04,3.53-2,15.23-3.42,26.18-3.53,27.99Z" fill="#e4995c"/><path id="Path_698" d="m134.59,74c-.55-1.59-.8-3.27-.74-4.95.16-2.26.77-4.46,1.79-6.47,1.38-3.07,3.15-5.95,5.27-8.55l11.76-13.17c-1.37,5.68-2.74,11.35-4.11,17.03-.42,1.88-1.03,3.7-1.82,5.45-1.2,3.12-3.19,5.87-5.77,7.99-1.54,1.18-3.27,2.07-5.13,2.63,2.04-4.13,4.09-8.26,6.13-12.4-2.47,4.15-4.93,8.29-7.39,12.44h0Z" fill="#e4995c"/><path id="Path_699" d="m130.81,88.54c.33-.86.84-2.08,1.53-3.52,1.37-3.14,3.2-6.06,5.43-8.67,2.27-2.49,4.42-3.63,8.71-5.9,3.24-1.72,6.63-3.14,10.12-4.25l27.49-10.04c-6.22,6.89-12.44,13.77-18.66,20.66-2.27,2.24-4.72,4.3-7.33,6.15-3.86,2.72-6.88,4.86-11.37,5.97-2.65.54-5.34.85-8.04.92-3.2.22-5.86.26-7.71.24,14.31-8.39,21.4-12.69,21.28-12.9-.12-.21-7.26,3.58-21.44,11.35h0Z" fill="#e4995c"/><path id="Path_700" d="m130.18,93.1c1.95.08,4.74.23,8.09.56,6.91.67,10.45,1.04,14.44,2.76,2.65,1.15,5.11,2.69,7.3,4.57,6.66,4.53,13.32,9.06,19.98,13.6-9.18-1.31-18.36-2.63-27.53-3.95-2.8-.3-5.53-1.08-8.07-2.3-3.14-1.51-5.13-3.32-7.81-5.78-2.59-2.39-4.97-5.01-7.09-7.82l18.97,7.9c-6.09-3.18-12.19-6.35-18.29-9.53h0Z" fill="#e4995c"/><path id="Path_701" d="m129.42,81.07c-.67-.39-1.46-.53-2.22-.39-1.61.12-3.23.12-4.84.26-2.61.13-5.22-.15-7.74-.85-2.53-.56-3.56-1.09-4.29-.46-.78.97-.88,2.32-.26,3.4.47.83,1.17.97,1.7,2.09.22.45.35.94.4,1.44-1.88,18.22-3.75,36.45-5.63,54.67,0,.97-.27,1.92-.79,2.74-1.02,1.54-2.48,1.6-2.67,2.7-.17,1.01.88,2.08,1.68,2.59,1.17.74,2.25.57,4.52.46,2.74-.12,5.26-.06,6.54,0,3.59.18,4.86.72,6.02-.26.67-.54,1.05-1.36,1.04-2.22-.08-.9-.76-1.28-1.31-2.09-.78-1.3-1.01-2.85-.65-4.32,2-18.01,4.01-36.02,6.02-54.02.48-.61,1-1.17,1.57-1.7,1.22-1.14,1.85-1.38,1.96-2.09.02-.79-.38-1.54-1.05-1.96h0Zm-17.04,55.45c0,.77-.16,1.53-.48,2.22-.28.58-.87,1.54-1.17,1.44-.21-.06-.35-.64,0-3.01,1.52-15.99,3.05-31.99,4.57-47.99.03-1.3.42-2.2.79-2.22s.81.75,1.05,1.83l-4.75,47.73Z" fill="#e4995c"/><path id="Path_702" d="m119.75,151.3c-1.89-.42-3.83-.55-5.75-.39-2.65.06-3.98.08-4.84,0-2.78-.28-3.99-.94-5.23-.13-.65.43-1.11,1.11-1.26,1.88-.12.99.57,1.51,1.26,3.09,0,0,.97.66.79,2.75-1.35,14.86-2.71,29.73-4.06,44.6.17.2.37.42.59.67.77.9,1.15,1.35,1.37,1.67.61.88.87,1.95.76,3.01-.16,1-.69,1.91-1.47,2.55-1.08.86-1.73.38-3.43,1.28-.84.45-1.88.99-2.06,1.96-.02.88.34,1.73.99,2.32,1.02,1.19,2.39,2.01,3.92,2.36,1.96.53,2.35-.02,6.15.4,2.35.25,4.02.56,6.15-.13.74-.24,2.22-.77,2.35-1.7.13-.99-1.4-1.49-2.09-3.33-.3-.82-.38-1.69-.26-2.55,1.87-17.74,3.74-35.49,5.62-53.23.33-.56.78-1.37,1.31-2.35,1.35-2.54,1.49-3.12,1.29-3.61-.13-.3-.45-.69-2.06-1.1h-.01Zm-11.12,11.63c-1.31,11.98-2.61,23.97-3.92,35.96-.46,1.35-.81,2-1.05,1.97-.33-.06-.46-1.4-.39-4.06,1.27-11.81,2.53-23.62,3.79-35.44.85-1.74,1.41-2.57,1.7-2.49.34.1.29,1.45-.13,4.06h0Z" fill="#e4995c"/><path id="Path_703" d="m124.12,153.15c2.01-.87,4.12-1.49,6.28-1.83,2.03-.31,4.1-.39,6.15-.26,2.3.12,4.57.47,6.8,1.05,5.67,1.65,11.33,3.31,17,4.97l-18.99,2.44c-1.63.14-3.27.11-4.9-.09-1.71-.23-3.38-.62-5.02-1.17-2.68-.89-5.23-2.12-7.59-3.66,5.14.39,10.29.78,15.43,1.17-5.06-.87-10.12-1.74-15.17-2.61h0Z" fill="#e4995c"/><path id="Path_704" d="m123.6,156.29c1.33,1.01,2.56,2.15,3.66,3.4,1.43,1.56,2.62,3.32,3.53,5.23.55,1.18.99,2.4,1.31,3.66.61,3.75,1.22,7.5,1.83,11.25-2.57-3.4-5.14-6.8-7.72-10.2-.85-1.27-1.55-2.63-2.09-4.06-.64-1.73-1.07-3.53-1.31-5.36-.2-1.26-.33-2.52-.39-3.79,1.65,3.18,3.31,6.36,4.97,9.55-1.27-3.22-2.53-6.45-3.79-9.68h0Z" fill="#e4995c"/></g><g id="_03" isolation="isolate"><text transform="translate(194.35 188.6) rotate(-90)" fill="#0c1f6a" font-family="MyanmarMN-Bold, &apos;Myanmar MN&apos;" font-size="126" font-weight="700" isolation="isolate"><tspan x="0" y="0">03</tspan></text></g></svg>