<?xml version="1.0" encoding="UTF-8"?><svg id="Layer_1" xmlns="http://www.w3.org/2000/svg" width="203" height="204" viewBox="0 0 203 204"><path d="m122.5,109.92c-.5-.2-2.73-1.09-2.72-2.24,0-1,1.79-1.03,2.63-2.47,1.6-2.74-1.82-7.64-2.11-8.04-.43-.6-2.02-2.67-2.88-3.75-.04-.05-.09-.12-.16-.2-2.14-2.55-3.07-2.9-4.22-4.06-.67-.68-1.1-1.29-1.49-1.85-2.18-3.14-2.89-5.05-4.38-6.95-1.3-1.66-1.2-.79-6.47-5.23-2.7-2.27-2.91-2.67-4.36-3.57-2.19-1.37-2.69-1.11-6.03-2.66-3.62-1.68-3.13-2.06-7.25-4.1-3.61-1.79-5.01-2.14-5.09-3.17-.09-1.27,1.9-2.54,2.8-3.12,1.11-.72,1.57-.64,3.07-1.46,1.53-.82,2.6-1.62,3.23-2.1,3.22-2.43,3.35-3.72,5.77-5.74,2.95-2.45,3.92-1.49,6.28-3.49,2.24-1.89,2.31-3.53,4.46-8.47,2.64-6.08,5.78-11.06,6.59-12.35,2.17-3.43,3.69-5.24,4.7-8.86,1.2-4.37.21-5.95-.14-6.4-.83-1.1-1.98-1.28-2.04-2.23-.09-1.42,2.41-2.6,2.71-2.73,1.82-.84,3.54-.71,4.46-.62,4.67.42,7,.62,9.8,1.44,3.16.94,3.58,1.36,9.29,3.59,1.42.56,5.68,2.22,10.72,3.93,7.97,2.71,8.64,2.41,10.71,3.94,1.94,1.42,3.48,3.96,6.49,8.97,4.47,7.47,4.23,8.45,7.37,12.82,1.65,2.29,1.39,1.56,6.19,7.7,4,5.11,5.13,6.71,5.58,8.07.04.13.07.28.19.73.5,1.94,1.11,4.22,1.62,5.54,1.46,3.75,4.06,4.45,3.58,5.93-.28.87-1.17.62-2.79,1.83-2.05,1.54-1.89,2.86-4,5.32-.38.45-1.5,1.38-3.73,3.24-3.4,2.83-3.65,2.91-5.47,4.48-2.97,2.58-2.63,2.66-4.91,4.54-3.4,2.79-3.83,2.34-5.58,4.16-1.86,1.93-1.49,2.56-4.19,6.72-2.17,3.35-3.26,5.03-4.97,6.23-1.79,1.24-2.97,1.29-8.03,2.54-3.65.89-1.04.38-8.42,2.3-10.23,2.65-13.5,3.19-16.81,1.88Zm48.01-55.28c.45-.37,1.31-1.42-.11-7.75-1.21-5.41-1.81-8.12-3.85-10.77-1.51-1.96-3.29-3.14-6.87-5.51-5.06-3.35-6.84-3.29-9.14-6.2-1.58-2-1.36-2.81-3.1-4.31-1.86-1.59-2.8-1.26-6.14-3.13-3.32-1.86-2.89-2.51-5.17-3.36-2.59-.97-2.98-.15-6.85-1.11-3.22-.8-4.03-1.63-5.5-1.09-1.5.55-2.23,2.01-2.93,3.38-1.39,2.76-.71,3.97-1.87,7.2-.7,1.96-.94,1.48-2.47,4.63-1.87,3.86-1.53,4.72-3.04,7.3-1.02,1.74-1.1,1.31-4.04,5.17-2.8,3.65-4.2,5.47-5.16,7.62-.98,2.19-.91,2.94-2.11,4.72-1.5,2.2-2.98,3.06-2.7,3.67.28.6,2.04.22,4.87-.13.08,0,2.77-.19,8.16-.54,6.99-.47,6.54-.12,8.83-.53,4.34-.77,4.27-1.68,7.51-1.91,1.17-.08,2.28-.04,8.36,1.09,5.98,1.12,5.32,1.15,7.09,1.4,5.83.81,6.14-.54,14.19-.08,2.67.15,5.36.01,8.02.34,2.25.27,3.25.55,4.04-.09Zm-39.74,47.94c.98-.43,3.19-.99,7.63-2.11,5.77-1.46,5.79-1,7.18-1.84,1.94-1.18,3.18-2.78,4.91-5.03,1.95-2.54,1.67-2.88,2.96-4.32,2.64-3,4.29-2.06,7.46-4.69,2.27-1.89,1.23-2.21,5.94-8.65,2.23-3.05,3.17-3.92,2.97-5.42-.24-1.79-1.9-3-4.32-4.74-1.08-.78-2.8-2-5.42-2.96-3.86-1.42-7.15-1.36-10.6-1.25-2.57.07-2.32.28-7.76.79-4.9.46-7.34.68-9.68.55-4.61-.25-4.17-1.27-9.95-2.08-5.3-.75-9.14-1.29-13.14.18-1.67.61-2.98,1.44-5.38,1.59-1.28.08-2.48-.05-4.48.36-.59.13-2.78.58-2.78,1.16,0,.58,2.24.42,4.04,2.11.81.75.9,1.28,1.56,2.34,1.37,2.2,2.68,2.62,4.76,4.47,2.19,1.95,1.72,2.37,4.78,5.99,2.43,2.88,2.6,2.47,5.33,5.52,2.64,2.94,4.53,5.05,6.17,8.36,1.56,3.15,2.33,4.72,2.68,7.16.27,1.9.15,3.31,1.06,3.81.9.51,2-.35,4.09-1.29Z" fill="#e3995c"/><g id="_04" isolation="isolate"><text transform="translate(198.16 205.15) rotate(-90)" fill="#0c1f6a" font-family="MyanmarMN-Bold, &apos;Myanmar MN&apos;" font-size="126" font-weight="700" isolation="isolate"><tspan x="0" y="0">04</tspan></text></g><path d="m85.13,105.15c-.48-.24-2.64-1.29-3.49-.51-.73.68.44,2.01-.06,3.61-.96,3.03-6.89,3.78-7.37,3.84-.74.09-3.33.3-4.71.39-.07,0-.15.01-.26.02-3.33.13-4.21-.33-5.85-.4-.95-.04-1.7.05-2.37.14-3.79.5-5.68,1.25-8.09,1.43-2.1.15-1.39-.36-8.23-1.28-3.5-.47-3.93-.37-5.58-.83-2.48-.7-2.62-1.25-6.02-2.68-3.68-1.55-3.63-.94-7.9-2.62-3.75-1.47-4.95-2.28-5.77-1.64-1,.79-.61,3.11-.43,4.17.21,1.3.58,1.6.98,3.26.42,1.69.54,3.01.62,3.8.36,4.01-.51,4.98-.38,8.13.17,3.83,1.53,3.9,1.63,7,.11,2.92-1.06,4.08-3.28,9-2.74,6.04-4.31,11.71-4.73,13.18-1.08,3.92-1.4,6.26-3.41,9.44-2.43,3.82-4.27,4.15-4.83,4.19-1.37.12-2.28-.6-3.02-.01-1.11.89-.31,3.53-.21,3.84.6,1.91,1.85,3.09,2.53,3.73,3.44,3.18,5.16,4.78,7.65,6.29,2.82,1.72,3.41,1.74,8.9,4.47,1.37.68,5.46,2.72,10.11,5.3,7.36,4.08,7.59,4.79,10.11,5.29,2.35.48,5.27-.08,11-1.22,8.54-1.7,9.1-2.53,14.45-3.15,2.81-.32,2.09-.02,9.86-.58,6.47-.47,8.42-.71,9.72-1.29.13-.06.25-.14.67-.35,1.78-.93,3.87-2.02,5.19-2.52,3.76-1.43,6.02.02,6.8-1.33.45-.79-.32-1.28-.51-3.3-.24-2.55.85-3.33,1.26-6.54.08-.58.02-2.04-.11-4.94-.19-4.42-.29-4.66-.36-7.06-.08-3.93.2-3.74.06-6.68-.21-4.4-.83-4.41-.66-6.93.18-2.67.9-2.82,2.17-7.61,1.03-3.86,1.54-5.79,1.28-7.87-.28-2.16-1.04-3.07-3.51-7.66-1.79-3.31-.42-1.02-3.95-7.78-4.91-9.36-6.7-12.15-9.9-13.71Zm-8.72,72.7c.03.58-.17,1.92-5.82,5.12-4.82,2.74-7.23,4.11-10.57,4.38-2.46.2-4.54-.33-8.69-1.39-5.88-1.5-7.03-2.86-10.73-2.61-2.55.18-3,.88-5.28.59-2.43-.31-2.82-1.23-6.45-2.45-3.61-1.21-3.8-.46-5.96-1.58-2.46-1.27-2.11-2.11-5.42-4.33-2.75-1.85-3.91-1.89-4.5-3.34-.6-1.48,0-3,.54-4.45,1.11-2.88,2.47-3.2,4.07-6.22.98-1.84.46-1.69,1.77-4.94,1.6-3.98,2.47-4.3,3.37-7.15.6-1.92.24-1.69,1.12-6.47.83-4.52,1.24-6.79,2.18-8.94.97-2.2,1.57-2.65,2.08-4.73.62-2.59.27-4.26.91-4.47.63-.19,1.53,1.36,3.18,3.7.05.06,1.72,2.18,5.08,6.41,4.35,5.49,4.3,4.92,5.53,6.9,2.35,3.73,1.62,4.29,3.63,6.84.72.92,1.5,1.72,6.43,5.46,4.84,3.68,4.43,3.17,5.8,4.31,4.51,3.77,3.72,4.91,9.47,10.57,1.9,1.87,3.61,3.97,5.63,5.71,1.71,1.49,2.59,2.04,2.64,3.05Zm8.83-61.65c.33,1.02,1.41,3.03,3.56,7.07,2.79,5.25,3.15,4.97,3.46,6.55.43,2.23.08,4.22-.43,7.02-.57,3.15-1.01,3.17-1.22,5.09-.45,3.98,1.36,4.56,1.54,8.68.12,2.96-.81,2.39-2.43,10.21-.76,3.7-.78,4.98-2.02,5.84-1.49,1.03-3.5.61-6.42-.01-1.3-.28-3.36-.73-5.83-2.03-3.64-1.91-5.81-4.39-8.05-7.01-1.68-1.95-1.35-1.9-4.63-6.28-2.95-3.93-4.42-5.9-6.09-7.54-3.28-3.25-3.74-2.24-8.22-5.98-4.12-3.42-7.09-5.9-8.69-9.86-.67-1.65-.94-3.17-2.43-5.05-.8-1.01-1.71-1.8-2.74-3.56-.3-.52-1.44-2.45-1.01-2.83.43-.39,1.82,1.37,4.27,1.58,1.1.1,1.55-.19,2.78-.42,2.55-.46,3.74.23,6.51.52,2.92.31,2.91-.32,7.65-.48,3.76-.13,3.58.27,7.67.24,3.95-.02,6.79-.03,10.34-1.04,3.38-.96,5.06-1.45,7.1-2.82,1.59-1.07,2.55-2.11,3.54-1.78.98.32,1.09,1.72,1.79,3.9Z" fill="#e3995c"/></svg>