<?xml version="1.0" encoding="UTF-8"?><svg id="Layer_1" xmlns="http://www.w3.org/2000/svg" width="277" height="302.26" xmlns:xlink="http://www.w3.org/1999/xlink" viewBox="0 0 277 302.26"><defs><clipPath id="clippath"><rect x="7.45" y="8.6" width="262.09" height="285.12" fill="none"/></clipPath></defs><g id="Group_12"><g clip-path="url(#clippath)"><g id="Group_1"><path id="Path_1" d="m266.07,95.15c-.68.77-2.12,2.4-3.17,2.04-.77-.27-.6-1.37-1.58-4.97-.64-2.35-.93-2.68-.9-3.84.05-1.96.95-3.89,1.58-3.84.73.05.37,2.65,2.04,3.62,1.28.75,2.52-.2,3.39.68.5.73.67,1.63.45,2.49-.17,1.44-.81,2.79-1.81,3.84" fill="#e3995c"/><path id="Path_2" d="m261.4,96.17c.31.52.31,1.18,0,1.7-.19.25-.46.32-1.13.45-1.16.21-2.33.36-3.5.45-.43-.32-.94-.51-1.47-.57-.79,0-1.09.73-1.47.57-.29-.13-.19-.59-.45-1.58-.16-.61-.43-1.63-.9-1.7-.39-.06-.54.57-1.02.56-.5,0-.61-.68-1.36-1.24-.63-.47-.86-.21-1.92-.68-.78-.34-1.47-.84-2.03-1.47-.49-.56-1.15-1.33-.9-2.04s1.24-.88,1.36-.9c.46-.07.94,0,1.36.23.58.31.5.61,1.02,1.02.76.6,1.23.19,2.49.79.47.22.32.24,1.24.79.99.59,1.13.55,1.92,1.02,1.42.83,1.37,1.18,2.15,1.36.8.18.9-.18,1.92-.11.26.02,2.08.14,2.71,1.36" fill="#e3995c"/><path id="Path_3" d="m245.77,66.89c.25-.25.16-.93.28-1.93.04-.45.15-.9.33-1.32,0,0,.02-.02.01-.03-.27-.56-.97-.08-1.47-.56-.44-.43-.11-.91-.56-1.36-.37-.35-.64-.11-1.25-.45-.74-.42-.59-.94-1.24-1.24-.24-.11-.19,0-1.58-.11-.45-.01-.9-.07-1.34-.17-.59-.17-.83-.38-.93-.28-.24.23.48,1.26.17,1.5-.51.4-.81-.19-1.07.08s.48,1.35.57,1.47c.26.38-.02.92.62,1.28,1.08.57,2.23.97,3.42,1.2,1.06.03,0-1.2.71-1.53.37-.17,1.13,1.56,1.13,1.99,0,.16-.04.67-.05.79,0,.03-.01.12-.02.24-.02.25-.04.41-.04.44-.04.55.17,1.09.57,1.47.44.36,1.19.49,1.36.23.09-.15-1.24-2.25-.79-2.83.22-.28.85,1.48,1.19,1.14" fill="#e3995c"/><path id="Path_4" d="m240.07,56.94c.43.4-.36,1.66-.11,1.81.22.14,1.3-.63,1.47-1.7.11-.65-.21-.93,0-1.58.23-.71.78-.94.68-1.13-.13-.24-1.16-.1-2.04.34-.75.38-.87.71-1.47.79-.7.09-1.09-.29-1.24-.11-.21.24.23,1.29,1.02,1.58.75.28,1.37-.31,1.69,0" fill="#e3995c"/><path id="Path_5" d="m268.25,81.43s.09.08.6.6l.15.15.45.45s.2,1.6,0,1.66c-.28.08-1.36-2.79-1.21-2.86" fill="#e3995c"/><path id="Path_6" d="m264.03,75.7c-.75-.44-1.42-1-2.01-1.64-.24-.24-.55-.56-.89-.97-.6-.66-1.1-1.4-1.48-2.2.2-.16,4.56,4.63,4.38,4.81" fill="#e3995c"/><path id="Path_7" d="m259.73,79.7c-.04-.22-.64-.11-1.13-.6-.15-.15-.26-.33-.35-.52-.2-.47-.1-.82-.18-.84-.15-.03-.49,1.35-.53,1.51-.16.67-.15.8-.07.9.29.43,1.28.17,1.36.15.42-.12.94-.39.9-.6" fill="#e3995c"/><path id="Path_8" d="m253.1,77.67c.1.06-.14.42-.08,1.08.04.36.14.71.31,1.03.55,1.04,1.58,1.21,1.51,1.51-.06.23-.74.4-1.21.15-.49-.26-.44-.83-.83-.9,0,0-.14-.03-.98.45-.06-.45-.09-.9-.07-1.36.1-1.16,1.18-2.06,1.36-1.96" fill="#e3995c"/><path id="Path_9" d="m252.99,83.47l.98.06.56,1.22c.03,1.12-.09,1.44-.23,1.47-.24.06-.4-.79-1.13-1.02-.41-.09-.83-.09-1.25,0l-1.02.9c.18.7.44.94.68,1.02.41.14.66-.26,1.13-.11,0,0,.19.06.91.9.52-.22,1.1-.17,1.58.11.37.33.13.74.45,1.13.66.79,1.95.24,2.45.98.24.36.6.82.6.83.56-.04.76.27,1.02.68.32.38.45.88.35,1.36-.02.19-.05.28-.12.33-.35.26-.79-.2-.8-.28l-.41.02-.41-.08c-.37.45-.52.42-.69.39-.43-.08-.21-.75-.64-.8-.28,0-.55-.03-.83-.07-.37-.1-.34-.61-.75-.75-.35-.12-.59.05-.91-.07-.36-.15-.18-.42-.57-.6-.32-.15-.67-.25-1.02-.3-.46-.09-.46-.54-.98-.68-.45-.12-.69.17-.9,0-.32-.25.19-.71-.11-.95-.25-.2-.72-.02-1.32-.1-.49-.07-.51-.39-1.36-.9-.37-.29-.81-.47-1.28-.53-.69-.03-.84.41-1.51.38-.59-.03-1.2-.41-1.21-.75s.63-.44.68-.9c.04-.42-.45-.59-.38-.98.07-.35.55-.55.83-.6.24-.05.49-.03.71.07.25.11-.08.04,0,0,.14-.07.27-.33.49-.67.2-.25.52-.36.83-.3.55.1.63.34.87.26.21-.06.15-.16.49-.49.3-.22.69-.31,1.06-.23.51.07.65.32,1.13.53.48.19,1,.24,1.51.15" fill="#e3995c"/><path id="Path_10" d="m258.98,84.37h0l.53.9c-.39.37-.64.52-.75.45-.15-.09-.07-.54.23-1.36" fill="#e3995c"/><path id="Path_11" d="m256.57,84.83c.29.05.43.61.45.9.08.42-.06.85-.38,1.13-.27.19-.63.19-.9,0-.24-.24-.1-.68,0-.98.13-.42.49-1.11.83-1.06" fill="#e3995c"/><path id="Path_12" d="m257.79,86.75c.21.03.35.33.3.57-.04.18-.2.38-.38.38-.22,0-.39-.31-.34-.57.04-.2.23-.4.41-.38" fill="#e3995c"/><path id="Path_13" d="m247.22,54.83l-1.88,1.96c-.6-1.48-.44-2.23-.15-2.64s.76-.52.83-.98c.09-.61-.62-1.03-.45-1.36.12-.24.64-.3.98-.15.68.3.91,1.57.68,3.17" fill="#e3995c"/><path id="Path_14" d="m248.13,56.26c.32-.04.97,1.06.6,1.66-.15.24-.42.32-.9.45-.53.15-1.08.3-1.36,0-.18-.21-.21-.51-.08-.75.22-.32.68-.06,1.13-.38.48-.34.37-.95.6-.98" fill="#e3995c"/><path id="Path_15" d="m250.62,59.5c-.18.03-.3.77-.07,1.43.25.48.58.91.98,1.28,1,1.12,1.13,1.25,1.21,1.21.16-.09,0-.87-.38-1.51-.27-.45-.42-.44-.83-.98-.65-.85-.74-1.46-.9-1.43" fill="#e3995c"/><path id="Path_16" d="m237.8,65h0c.18.25.33.55.23.75-.16.32-.78.18-.83.38-.05.22.74.62,1.17.58.11,0,.22-.03.32-.07.2-.08.26-.18.3-.16.13.06-.25.94-.11,1.02.12.07.43-.47.68-.4.17.05.26.38.17.62-.13.36-.61.4-.62.4h-.06s-.05.49.17.62c.16.1.38-.04.79-.28.43-.26.64-.38.74-.62.15-.38-.09-.68.06-.79s.47.06.68.28c.35.37.26.8.45.85s.48-.28.51-.62c0-.11,0-.28-.4-.79-.25-.33-.54-.63-.85-.9-.52-.47-.79-.71-1.07-.74-.29,0-.57.09-.79.28" fill="#e3995c"/><path id="Path_17" d="m247.15,72.39c.32,0,.95,1.58.38,2.71-.3.6-.75.69-.83,1.28-.09.69.44,1.03.23,1.51-.16.36-.51.26-1.06.68-.67.51-.4.86-1.13,1.66-.62.67-1.02.65-1.28,1.28-.16.39-.09.59-.3.75-.37.28-.79-.15-1.36.07-.45.18-.33.53-.9.9-.44.29-.59.13-1.21.45-.56.29-.53.47-.9.6-.7.24-1.63-.12-1.66-.45-.02-.26.5-.33,1.28-.98.43-.43.83-.88,1.2-1.36.73-.74.93-.58,1.88-1.36.71-.58.54-.62,1.88-1.96.9-.9,1.06-.97,1.58-1.58.43-.49.81-1.02,1.13-1.58.87-1.56.79-2.64,1.06-2.64" fill="#e3995c"/><path id="Path_18" d="m241.12,71.33c-.21-.1-.46-.1-.68,0-.34.16-.52.53-.45.9.1.33.47.28.68.68.14.28.14.62,0,.9-.18.31-.48.53-.83.6-.39.1-.56-.04-1.43-.23-.51-.16-1.05-.21-1.58-.15-.27.05-.86.16-1.06.6-.1.36-.04.74.15,1.06.12.28.3.54.53.75.3.3.47.47.68.45.4-.04.44-.77.83-.83.37-.05.49.57,1.06.68.48.02.95-.17,1.28-.53.33-.32.58-.71.75-1.13.27-.45.47-.93.6-1.43.16-.8.1-2.03-.53-2.34" fill="#e3995c"/><path id="Path_19" d="m238.33,69c.35.5.61,1.06.75,1.66.19.67.31,1.11.08,1.51-.25.38-.68.61-1.13.6-.76,0-1.29-.73-1.58-1.13-.52-.71-.35-.98-.83-1.43-.51-.49-.8-.26-1.43-.75-.54-.45-.94-1.06-1.13-1.73-.22-.67-.02-.73-.26-1.36-.32-.83-.7-.83-.79-1.43s.27-.71.23-1.51c-.03-.62-.26-.67-.23-1.17.04-.56.37-1.24.83-1.32.36-.06.45.29,1.02.34s.77-.27,1.02-.11c.28.17.04.58.3,1.13.31.64.88.59,1.02,1.1.12.42-.23.64-.41,1.24-.18.86-.02,1.75.45,2.49.62.99,1.25.69,2.11,1.88" fill="#e3995c"/><path id="Path_20" d="m248.15,63.84c.32.15.49.51.4.85-.07.11-.21.13-.42.4l-.03.05c-.23.32-.15.6-.28.79-.17.22-.48.29-.74.17-.07-.05-.13-.16,0-.96.18-1.12.37-1.25.45-1.3.2-.09.42-.09.62,0" fill="#e3995c"/><path id="Path_21" d="m248.26,66.55c.55.55.68,1.39.34,2.09-.19.26-.47.32-.57.68-.08.31.07.46-.06.74s-.42.47-.57.4c-.17-.08.03-.51-.23-.79-.16-.17-.3-.09-.51-.28-.18-.18-.29-.42-.28-.68.05-.31.24-.58.51-.74.38-.28.56-.17.85-.4.47-.38.35-1.01.51-1.02" fill="#e3995c"/><path id="Path_22" d="m215.72,81.55c1.03-1.36.56-1.23,1.73-2.87,1.8-2.5,2.48-2.24,2.87-3.54.1-1.11.02-2.23-.23-3.32-.49-3.48-.72-3.21-.68-4.3.09-2.47.26-1.58.21-2.84-.06-1.54-.13-2.21-.88-3.04-.7-.77-.79-1-.75-1.21.08-.47.7-.45.91-1.06.15-.39.06-.83-.23-1.13-.3-.26-.66-.03-.83-.23-.15-.17-.11-.62.76-1.96.59-.96,1.02-2.01,1.28-3.1.49-.63,1.86-1.17,1.73-1.57-.2-.4-.61-.66-1.06-.68-.42-.03-.5.18-1.06.22-.39.08-.8,0-1.13-.22-.32-.29-.28-.78-.23-1.66.01-.54.12-1.08.31-1.58.35-.86.77-1.03.68-1.43-.05-.2-.18-.26-1.06-.83,0,0-.3-.19-1.51-1.06-.58-.41-.74-.54-.75-.76-.02-.34.37-.41.45-.91.03-.33-.02-.67-.15-.98,0,0-.43-.65-.53-.83-.42-.76.26-1.63.61-3.17.36-1.6.04-2.61.22-2.64.22-.03.74,1.5.83,3.01.06.6.06,1.21,0,1.81-.07.45-.1.9-.08,1.35.02.7.12.75.15.76.11.03.26-.13.83-1.06.41-.65.61-.98.69-1.13.57-1.25.24-2.29.45-2.33.17-.03.34.68,1.13,2.41.37.62.6,1.32.68,2.04.01.63,0,.98,0,.98-.11-.06-.04.63,0,0,.29.25.68.35,1.06.3.44-.04.87.16,1.13.53.22.42.28.9.15,1.36-.12.88.21.69.37.96.4.49.97.82,1.6.91.53.14.31.28,1.65,1.89,1.95,2.36,1.81,2.4,2.41,2.87,1,.77,1.4.67,2.11,1.5.55.65.54.91.91.85s.69-.31.98-.33c.37,0,.48.63,1.11.82.49.14.76.06,1.22.24.08.04.26.12.6.91.31.52.47,1.12.45,1.73-.07.78-.47,1.49-1.1,1.95-.44.09-.66-1.15-1.3-1.11-.73.04-.69-.21-1-.09-.59.24-.32,1.23-.56,1.48-.54.56-1.33-1.24-1.81-.37-.46.83-.42-.44-.79.37-.17.37-1.21-.25-1.24.61-.04.82-1.52,1.38-2.43,2.49-.94,1.02-1.55,2.3-1.75,3.67-.47,1.91-.72,3.87-.74,5.84.03.78-.46,4.53.45,4.85.29.1.94-.74,1.81-1.02,1.29-.26,2.59-.45,3.9-.56,1.02-.06,2.05-.04,3.07.06.48.37,1.65,1.12,2.4,1.58.68.48,1.43.85,2.22,1.1,1.82.56,5.47-4.44,5.75-4.25.14.11-.42,1.31-3.17,5.65-.38,0-.76.05-1.13.16-.46.12-.74.2-.9.45-.28.42,0,1-.15,1.06-.18.07-.56-.81-.91-.76-.24.04-.18.49-.53.83-.6.58-1.79.25-1.88.22-.48-.16-.94-.39-1.36-.68-.44-.28-.62-.45-.83-.38-.3.11-.19.58-.6.9-.25.22-.6.28-.9.15-.27-.2,0-.64-.31-.98-.27-.22-.63-.3-.98-.23-.29.01-.57.15-.76.38-.21.36.1.76-.07.9-.13.11-.37-.09-1.05-.3-.26-.11-.55-.17-.83-.16-.36.07-.58.34-.98.83-.49.61-.4.72-.68.9-.44.22-.95.28-1.43.15-.32-.05-.62-.16-.91-.31-.11.33-.32.62-.61.83-.61.44-1.24.19-2.26.15-2.14-.09-3.43.85-3.92.23-.19-.25-.08-.52-.37-.76-.4-.32-.91-.08-1.05-.3-.19-.28.33-.93.6-1.28m7.24-27.1c.14.19.43-.03.76.16.51.28.27,1.08.75,1.35.38.21.71-.21,1.13,0,.51.26.32,1.05.76,1.21s1.07-.53,1.13-.61c.28-.35.47-.76.53-1.21.21-1.07,0-2.18-.6-3.09-.18-.26-.64-.91-1.06-.83-.39.08-.32.74-.83.98-.59.28-1.14-.38-1.66-.08-.09.06-.11.09-.53.98-.38.81-.47,1-.38,1.13" fill="#e3995c"/><path id="Path_23" d="m221.07,42.74c-.11-.06-.04.63,0,0" fill="#e3995c"/><path id="Path_24" d="m242.1,48.35c.11.48.11.99,0,1.47l.68,1.13s.44,1.09.22,1.24c-.12.08-.32-.18-.9-.38-.32-.11-.67-.23-.83-.08-.14.13-.08.39,0,.83.11.56.24.68.15.83-.15.24-.69.22-1.06.08-.35-.13-.62-.41-.75-.75-.13-.45.17-.72,0-.98-.12-.18-.38-.23-.91-.23-1.42.02-1.8.42-2.64.23-.23-.06-.8-.19-.98-.6s.19-.8,0-1.06c-.21-.29-.79.05-1.73,0-.72-.07-1.42-.3-2.03-.68-.59-.24-1.11-.64-1.51-1.13-.4-.6-.61-1.31-.6-2.03,0-.48.08-1.28.08-1.28,0,0,.12-.78.38-.83.24-.05.37.57.75.6.37.03.49-.52.91-.53s.74.5.9.75c.31.47.17.6.45,1.06.27.41.63.74,1.06.98.4.25.42.16,1.13.53.66.33.88.53.98.45s-.01-.32-.3-1.06c-.17-.52-.37-1.02-.6-1.51-.48-.79-.76-.63-.98-1.21-.27-.7.11-1.02-.23-1.66-.21-.41-.41-.36-.68-.83-.32-.55-.41-1.26-.23-1.36.21-.11.53.74,1.51,1.13.76.31,1.1.01,1.51.38.09.08.23.23.53,1.58.16.73.15.86.3,1.51.09.52.24,1.03.45,1.51.27.4.57.78.9,1.13.36.46.35.5.98,1.36.25.42.58.78.98,1.06.23.14.67.4.98.23s.37-.74.23-1.13-.42-.39-.6-.83c-.14-.33-.2-.84,0-.98.29-.2,1.25.31,1.51,1.06" fill="#e3995c"/><path id="Path_25" d="m230.68,41.22c.37-.64-.09-1.56-.45-2.03-.44-.58-.92-.71-2.26-1.36-.56-.27-1.3-.65-2.15-1.13.17.6.44,1.46.79,2.49.6,1.74.82,2.04,1.13,2.26.89.63,2.48.57,2.94-.23" fill="#e3995c"/><path id="Path_26" d="m228.87,63.04c.51.2.83.7.79,1.24-.03.41-.24.78-.56,1.02l.79.9c-.24.21-.44.48-.56.77-.03.12-.03.24,0,.36.04.21.66.59.9.9.1.13.12.23.23,1.36.08.85.12,1.27.11,1.36-.02.72-.04,1.68-.56,1.92-.58.27-1.68-.39-1.81-1.13-.11-.64.59-.96.45-1.7-.09-.5-.44-.47-.68-1.13-.23-.62.03-.75-.11-1.58-.14-.8-.41-.82-.57-1.7-.12-.44-.12-.91,0-1.36.22-.64.91-1.42,1.58-1.24" fill="#e3995c"/><path id="Path_27" d="m258.49,102.39c-.43-.54-1.15-.77-1.81-.57-.53.17-.97.53-1.24,1.02-.36.75-.63,1.55-.79,2.38.48.12.97.2,1.47.23,1.33-.04,2.85-2.1,2.38-3.05" fill="#e3995c"/><path id="Path_28" d="m255.66,100.47c.13.31-.19.72-.45.9-.32.24-.89.37-1.13.11-.24-.44-.09-.99.34-1.24.41-.27.96-.17,1.24.23" fill="#e3995c"/><path id="Path_29" d="m251.48,102.95c.3.3.39.74.23,1.13-.22.43-1.57-.07-1.47.9.15,1.54-.7.61-.58.99,0,.01.58-.99.58-.99.18.41.57,1.52,1.18,1.27.07-.03.13-.06.17-.03.18.1.11.96-.34,1.36-.69.6-2.26.11-2.26.11s0-1.17-.31-1.15c-.25.02-.56.45-1.16.69-.52.11-1.05-.18-1.25-.68-.22-.63.44-1.32.91-1.81,1.3-1.37,3.53-2.48,4.3-1.81" fill="#e3995c"/><path id="Path_30" d="m245.71,104.95c.07.43-.83.87-.9.9-.48.31-1.08.33-1.58.07-.45-.33-.61-.92-.38-1.43.5-.72,2.76-.18,2.86.45" fill="#e3995c"/><path id="Path_31" d="m253.33,99.6c.31.42.24,1.01-.15,1.36-.22.09-.37-.19-.75-.15-.32.03-.37.24-.83.45-.28.13-.8.29-.9.15-.13-.18.38-.8.9-1.21.11-.09,1.28-.97,1.73-.6" fill="#e3995c"/><path id="Path_32" d="m245.79,100.2c.2-.47.5-.6.45-.75-.1-.29-1.34-.08-2.11,0-1.54.13-3.09.03-4.6-.3-2.51-.41-2.37-.96-4.45-1.13-1.42-.12-2.93-.24-3.84.68-.54.63-1.02,1.31-1.43,2.03-.35.6-.53,1.01-.75.98-.27-.03-.47-.71-.45-1.28.02-.68.33-.76.45-1.66.08-.61-.03-.77.15-1.06.28-.34.69-.56,1.13-.6.96-.19,1.23.22,2.19.08.72-.11,1.39-.48,1.36-.68-.03-.23-.98-.24-.98-.38,0-.15,1.22-.14,1.28-.45.04-.2-.4-.46-.75-.6-.79-.22-1.61-.24-2.41-.07-1.4.07-1.32-.28-2.19-.15-1.19.25-2.25.96-2.94,1.96-.5.83-.84,1.75-.98,2.71-.47,1.92-.23,2.17-.68,3.69-.39,1.31-.74,2.44-1.73,3.01-.7.4-.97.11-1.66.53-.9.7-1.47,1.73-1.58,2.86-.13.68-.17,1.42.3,3.84.68,3.51,1.04,5.27,2.19,5.73.55.22.83,0,1.81.38.72.18,1.35.64,1.74,1.27.26.58,0,.93.3,1.21s.66-.01,1.66.07c.83.07.97.3,1.36.15s.37-.42.9-1.06c.2-.23,1.03-1.23,1.43-1.06.31.13.07.79.45,1.06.47.31,1.28-.34,1.51-.07.18.2-.25.67-.08.9.2.27,1.1.15,1.51-.38.17-.21.29-.55.15-1.43-.21-.88-.51-1.74-.9-2.56-.54-1.68-.05-2.11-.68-2.86-.58-.7-1.23-.62-1.43-1.28-.21-.69.37-1.26.07-1.59-.27-.3-.82.12-1.28-.14-.62-.35-.16-1.42-.53-2.86-.48-1.87-1.86-2.47-1.51-3.32.19-.45.59-.29,1.28-.9,1.17-1.03.74-2.09,1.66-2.64.72-.43,1.04.18,2.56-.15,1.02-.22,1.06-.53,2.19-.75.69-.15,1.41-.18,2.11-.07.83.15,1.62.45,2.34.9.88.51.84.72,1.51.98.64.17,1.3.27,1.96.3.74.21,1.5.31,2.26.3.55,0,1.08-.25,1.43-.68.26-.35.29-.82.08-1.21-.41-.45-1.39.23-1.81-.23-.28-.31-.14-.95,0-1.28" fill="#e3995c"/><path id="Path_33" d="m237.18,113.24h0c-.31.33-.49.66-.4.79.11.15.58.04.9-.17.22-.15.19-.22.51-.45.18-.15.41-.25.64-.28.14,0,.24-.01.32.05.24.21-.06.93-.17,1.19-.06.14-.13.28-.21.42,0,0-.05.08-.11.16-.41.55-.85,1.07-1.32,1.57-1.23,1.33-.97,1.25-1.36,1.53-.26.19-.59.37-.62.68,0,.22.11.43.28.56.3.21.69.23,1.02.06.39-.2.35-.53.79-1.36.31-.56.67-1.09,1.07-1.58.25-.28.48-.58.68-.9.21-.39.36-.81.45-1.24.15-.58.22-.87.11-1.13-.17-.34-.48-.58-.85-.68" fill="#e3995c"/><path id="Path_34" d="m233.35,124.25c-.06-.17-.28-.74-.6-.75-.24-.01-.44.28-.68.6-.4.55-.42.89-.6.9-.25.02-.27-.59-.75-.83s-.81.21-1.43,0c-.5-.17-.48-.52-.83-.53-.62-.02-1.2,1.06-1.36,1.36-.11.24-.23.46-.38.68-.33.45-.53.49-.53.68,0,.34.64.34,1.21.98.41.46.35.77.75.98.36.18.82.17.9,0,.11-.22-.55-.52-.53-1.06.01-.33.28-.68.53-.68.3,0,.34.51.83.9.46.33,1.03.46,1.58.38.7-.14,1.31-.58,1.66-1.21.44-.73.52-1.62.23-2.41" fill="#e3995c"/><path id="Path_35" d="m224.46,123.42c.35.24.58.63.6,1.06.07.45-.04.91-.3,1.28-.24.32-.66.63-.83.53-.21-.14.18-.86-.08-1.06s-.82.42-1.13.23c-.27-.17-.23-.88.08-1.36.33-.58,1.01-.86,1.66-.68" fill="#e3995c"/><path id="Path_36" d="m213.83,108.57c-.3-.12-.01-.9-.23-2.49-.03-.7-.19-1.39-.45-2.04-.17-.31-.38-.58-.3-.9.09-.34.41-.36.68-.68.53-.71.47-1.7-.15-2.34-.27-.17-.58-.09-1.21.07-1.11.29-1.18.67-2.26.98-.58.17-.84.14-.98.38-.21.36.1.84.3,1.36.27.69.13.92.15,2.79.03,2.92.39,3.43,0,5.05-.18.75-.26.64-.38,1.21-.61,2.87,1.34,5.96,2.03,5.8.8-.18.49-4.83,1.88-6.03.3-.31.7-.49,1.13-.53.55,0,.8.36,1.06.23s.16-.65.15-1.73c0-1.38.15-1.94-.08-2.04-.35-.15-.98,1.05-1.36.9" fill="#e3995c"/><path id="Path_37" d="m205.17,106.99c.6.53,1.1.54,1.13.9.04.39-.5.45-.68,1.06-.2.67.32,1.06.08,1.66-.16.38-.41.35-.68.68-.71.89.34,2.11-.15,2.94-.53.89-2.69,1.04-3.47.15-.55-.64.08-1.24-.15-3.17-.21-1.75-.83-2.07-.75-3.69-.03-.74.21-1.46.68-2.04.33-.38.8-.64,1.3-.71.47-.04.95.08,1.34.35.78.52.53,1.13,1.35,1.86" fill="#e3995c"/><path id="Path_38" d="m197.03,110.53c.54.19.69,1.01.83,1.81.49,2.79-.47,5.69-.98,5.65-.26-.02-.54-.83-.45-1.51.08-.61.45-.93.3-1.13-.18-.25-.81.22-1.36,0-.72-.29-1.04-1.65-.75-2.71.34-1.28,1.64-2.39,2.41-2.11" fill="#e3995c"/><path id="Path_39" d="m195.9,105.78c.55.56.83,1.33.75,2.11-.03,1.93-1.65,3.82-2.56,3.62-.52-.12-.85-.93-.9-1.51-.06-.73.33-.92.45-1.73.22-1.41-.76-2.08-.38-2.64s1.81-.56,2.64.15" fill="#e3995c"/><path id="Path_40" d="m219.49,97.6c.38.37.08,1.23-.23,2.11-.25.73-.94,2.36-1.51,2.26-.28-.05-.46-.68-.83-1.96-.29-1.01-.25-1.19-.23-1.28.29-1.04,2.23-1.68,2.79-1.13" fill="#e3995c"/><path id="Path_41" d="m219.79,95.15c.22.65-1.81,2.41-2.79,1.88-.52-.38-.71-1.07-.45-1.66.53-1.1,3.03-.84,3.24-.23" fill="#e3995c"/><path id="Path_42" d="m225.06,94.47c.16.39-.84,1.08-.9,1.13-.38.26-1.13.77-1.58.45-.37-.36-.44-.93-.16-1.36.25-.38.72-.41,1.36-.45.4-.03,1.16-.08,1.28.23" fill="#e3995c"/><path id="Path_43" d="m224.46,88.82c.47.23.46,1.43.08,2.26-.34.68-.94,1.19-1.66,1.43-.33.12-1.04.39-1.36.07-.33-.33-.03-1.1.08-1.36.24-.53.6-.99,1.06-1.36.74-.66,1.4-1.25,1.81-1.06" fill="#e3995c"/><path id="Path_44" d="m220.09,91.08c.45.33.39,1.27.08,1.88-.28.5-.74.87-1.28,1.06-.34.15-1.73.74-2.41,0-.44-.58-.44-1.38,0-1.96.15-.2.32-.29,1.73-.68,1.53-.43,1.72-.43,1.88-.3" fill="#e3995c"/><path id="Path_45" d="m219.71,86.94c.3.19.51.49.6.83.04.7-.35,1.36-.98,1.66-.65.34-.95-.02-1.67.3-.89.39-1.04,1.22-1.34,1.14-.35-.1-.4-1.25-.15-2.19.1-.58.4-1.11.83-1.51.76-.64,1.85-.74,2.71-.23" fill="#e3995c"/><path id="Path_46" d="m229.89,88.97l1.1.07h.03s.07.76-.3.98c-.29.17-.55-.15-.83,0-.32.17-.17.67-.45,1.43-.12.37-.32.71-.6.98-.73.65-2.11.61-2.34.15-.22-.43.64-1.11.38-1.51-.19-.3-.76-.07-.98-.38s-.02-.96.38-1.36c.58-.57,1.59-.51,3.62-.38" fill="#e3995c"/><path id="Path_47" d="m230.49,87.09c.1.13-.03.43-.15.6-.72,1.04-3.21.98-3.54.23-.11-.52.18-1.03.68-1.21.45-.1.63.47,1.36.6.83.15,1.48-.45,1.66-.23" fill="#e3995c"/><path id="Path_48" d="m228.23,84.68c.44-.29,1.02-.02,2.03.45.51.24.92.43.9.68-.01.22-.36.46-.68.45-.51,0-.72-.61-1.06-.53-.26.07-.21.46-.53.6-.41.12-.86-.07-1.06-.45-.17-.44-.02-.94.38-1.21" fill="#e3995c"/><path id="Path_49" d="m236.37,87.39c.09.51-.2,1.01-.68,1.21-.47.18-.68-.2-1.73-.3-.67-.06-.92.06-1.13-.15-.28-.35-.28-.85,0-1.21.08-.09.3-.28,2.11,0,1.23.19,1.37.31,1.43.45" fill="#e3995c"/><path id="Path_50" d="m237.65,85.2c.05.06.44.5.3.83-.16.38-.98.53-.98.53l-.68-.98s-.57.49-.83.38c-.23-.1-.33-.72-.08-1.06.4-.51,1.67-.36,2.26.3" fill="#e3995c"/><path id="Path_51" d="m239.16,86.71c-.22.06-.17.34-.53,1.13-.38.84-.61.96-.53,1.21.13.37.72.21,1.73.68.74.34,1.11.74,1.28.6s-.18-.63.08-1.06c.21-.36.65-.31.68-.53.03-.25-.56-.39-1.28-.9-.9-.64-1.11-1.23-1.43-1.13" fill="#e3995c"/><path id="Path_52" d="m241.49,93.54c-1.18-.4-1.1-.72-1.96-.91-.89-.19-1.12.11-2.11-.15-.24-.06-1.2-.32-1.2-.68,0-.33.81-.69,1.5-.83,1.82-.35,2.87.79,3.77.15.37-.26.39-.58.98-.9.27-.14.79-.42,1.13-.22.45.25.07,1.01.53,2.03.2.45.29.35,1.06,1.36.39.62.82,1.22,1.28,1.8.52.47,1.11.88,1.73,1.2.63.43,1.32.79,2.03,1.06.91.31,1.27.21,1.43.53.25.48-.21,1.4-.91,1.74-.45.18-.95.18-1.4,0-.25-.09-.49-.22-.71-.38-.54-.41-.59-.83-.91-1.06-.67-.36-1.45-.44-2.18-.23-2.46.33-5.36.71-6.33-.45-.19-.22-.41-.63-.83-.68-.49-.06-.75.42-1.13.31s-.63-.75-.46-.98c.21-.28.92.21,2.11,0,.05,0,.83-.15.83-.38,0-.19-.58-.2-.91-.68-.23-.3-.26-.72-.08-1.06.08-.08.26-.2,1.58.15,1.07.29,1.32.46,1.81.38s1-.38.98-.6c-.04-.24-.65-.19-1.66-.53m1.2,2.59c-.31.11-.62.2-.94.26-.19.03-.37.05-.56.04-.67,0-.88-.27-1.13-.15-.31.19-.43.57-.3.9.19.33.76.06,2.18.15,1.03.06,1.48.25,1.96-.07.22-.15.51-.43.45-.68-.08-.37-.97-.62-1.66-.46" fill="#e3995c"/><path id="Path_53" d="m247.52,49.32c.09.09-.07.44-.3.68-.37.38-.98.51-1.06.38s.35-.53.6-.72c.2-.15.65-.44.75-.34" fill="#e3995c"/><path id="Path_54" d="m247.07,47.63c.12.1-.13.62-.42.94-.21.21-.46.38-.72.53-.32.2-.39.21-.41.19-.08-.07.15-.47.19-.53.42-.7,1.21-1.26,1.36-1.13" fill="#e3995c"/><path id="Path_55" d="m242.93,46.31c-.04.18-.12.63.04.72.2.11.7-.42.87-.6.44-.47,1.22-1.6,1.55-4.37-1.07,1.26-1.9,2.7-2.45,4.26" fill="#e3995c"/><path id="Path_56" d="m241.72,43.14c.24.54.27,1.14.08,1.7-.18.61-.6,1.19-.75,1.13-.13-.04-.12-.53,0-.9s.28-.44.45-.83c.13-.35.2-.72.23-1.09" fill="#e3995c"/><path id="Path_57" d="m239.27,40.73c.15.92.13,1.87-.04,2.79-.07,0-.15-.38-.23-.72-.22-1.03-.09-1.32-.26-2.11-.02-.08-.16-.51-.45-1.36-.23-.66-.38-1.09-.19-1.51.05-.1.16-.34.3-.34.42,0,.75,2.03.87,3.24" fill="#e3995c"/><path id="Path_58" d="m219.54,84.81c.66-.02.99-.01,1.07.17.11.22-.16.65-.51.85-.44.25-.72-.02-1.7.06-.1,0-.43.06-1.07.17-1.03.17-1.28.23-1.36.11-.11-.17.17-.61.51-.9.29-.25.64-.39,3.05-.45" fill="#e3995c"/><path id="Path_59" d="m211.29,88.71c1.07-.42,1.56-.84,1.81-.62.17.14.04.42-.06,1.41-.12.6-.12,1.21,0,1.81.28.8.93.96.85,1.47-.06.33-.34.29-.51.79-.13.38-.02.54-.17,1.07-.04.2-.11.39-.23.56-.37.45-1.02.12-2.49.28-.7.08-.88.19-1.24.06-.4-.15-.46-.38-.96-.9-.61-.55-1.25-1.06-1.92-1.53-.6-.45-.9-.65-.85-.85.06-.26.67-.14.96-.57.25-.36-.04-.7.11-1.13.13-.38.5-.59,1.58-.96,1.78-.61,2-.47,3.11-.9" fill="#e3995c"/><path id="Path_60" d="m213.15,96.11c.23-.11.73-.33,1.02-.11.24.18.2.58.17.96.01.48-.17.95-.51,1.3-.32.26-.49.08-1.19.28-.64.18-.63.37-1.64.79-.33.14-.67.26-1.02.34-.19.04-1.15.27-1.24.06-.08-.18.56-.44.57-.96,0-.33-.26-.42-.23-.68.05-.41.75-.64,1.19-.79,1.07-.36,1.32-.07,1.92-.45.42-.27.44-.5.96-.74" fill="#e3995c"/><path id="Path_61" d="m203.71,99.56c.19.14-.01.56.23.74.24.17.65-.12.74,0,.11.15-.45.73-.62.9-.3.38-.69.69-1.13.9-.45.17-.64.06-.85.28-.29.31-.1.72-.34.85-.21.12-.4-.2-.9-.28-.62-.1-.9.27-1.24.06-.22-.12-.33-.37-.28-.62.12-.27.63-.15.79-.45.12-.24-.12-.42-.06-.68.1-.42.83-.38,1.81-.79,1.06-.45,1.61-1.1,1.87-.9" fill="#e3995c"/><path id="Path_62" d="m200.83,96.45c.36.17.24,1.06.23,1.13-.06.43-.26.82-.57,1.13-.35.35-.55.27-.85.62-.28.33-.19.5-.4.85-.38.5-.95.83-1.58.9-.47.09-1.21.23-1.64-.23-.52-.56-.13-1.54-.11-1.58.32-.61.87-1.08,1.53-1.3.77-.36.89-.17,1.64-.51,1.08-.5,1.42-1.18,1.75-1.02" fill="#e3995c"/><path id="Path_63" d="m204.5,90.46c-.16.38-.39.73-.68,1.02-.34.32-.76.54-.85.45-.13-.12.48-.69.28-1.13-.1-.22-.33-.35-.57-.34-.37.06-.33.64-.85.9-.28.14-.68.16-.79,0-.17-.25.45-.72.28-1.13-.13-.32-.57-.23-.85-.57-.34-.4-.15-1.08-.06-1.41.53-1.78,1.29-2.77,1.81-4.18.52-1.44.86-2.94,1.02-4.46-.03-.58.2-1.13.62-1.53.35-.23.6-.07,1.07-.34.42-.25.72-.66.85-1.13.12-.61-.3-.73-.28-1.41.02-.61.36-.72.79-1.75.22-.51.37-1.04.45-1.58.16-1.23-.21-1.93.17-2.2.3-.22.76.06.9-.17.11-.16-.05-.42-.17-.68-.18-.55-.28-1.12-.28-1.7-.17-1.29,0-2.59.51-3.79.25-.41.46-.85.62-1.3.02-.06.48-1.63-.06-1.98-.28-.19-.6.14-1.02-.06-.29-.18-.49-.46-.56-.79-.07-.24-.16-.67.28-2.6.1-.42.19-.78,0-.96-.22-.21-.63,0-.74-.17-.09-.15.16-.37.51-.96.37-.63.35-.83.68-1.13.18-.17.43-.4.68-.34.37.09.32.75.68.85.29.08.73-.24.85-.62.13-.42-.19-.66-.34-1.24-.07-.75.05-1.5.34-2.2.13-.72.4-1.41.79-2.03.34-.45.52-.45.96-1.07.28-.39.43-.7.62-.68.25.03.25.58.51.62s.54-.42.74-.74c.36-.58.31-.8.62-1.07.23-.21.64-.42.85-.28.24.16.18.79-.06,1.24-.32.63-.78.56-1.02,1.13-.21.49.08.66-.11,1.24-.24.72-.83,1-.74,1.19.12.23,1.02-.22,1.3.11.15.19-.04.41-.11,1.02-.1.68.02,1.37.34,1.98.16.23.29.48.4.74.13.32.2.52.11.68-.17.3-.75.07-.9.34-.07.12-.03.29.45,1.13.5.85.59.89.62,1.13.07.5-.27.85-.68,1.47-.38.71-.72,1.45-1.02,2.2-.47,1-.85,2.04-1.13,3.11-.33,1.32-.11,1.21-.45,2.43-.24.84-.47,1.33-.23,1.58.31.21.73.19,1.02-.06.34-.28.31-.77.34-1.19.16-2.11,2.09-3.46,2.71-3.9.24-.23.57-.33.9-.28.44.16.55.92.57,1.02.06.41-.07.47,0,.9.08.5.27.56.23.85-.09.34-.34.62-.68.74-.46.18-.77-.06-.9.11-.19.25.41.75.23,1.3-.11.32-.34.25-.51.62-.06.12-.1.29,0,1.3.07.68.1.7.06.85-.17.47-.58.82-1.07.9-.67.12-1-.37-1.3-.17-.42.29-.15,1.56-.11,1.75.08.4.17.53.11.79-.11.4-.4.71-.79.85-.57.19-.95-.22-1.19,0-.15.13-.1.51,0,1.24.1.72.18.88.06,1.02-.21.23-.6-.07-1.13.17-.37.17-.63.52-.57.62s.48-.15.79.06c.22.15.32.43.23.68-.15.21-.55-.07-1.13.11-.07.02-.76.25-.85.79-.06.31.07.62.34.79.29.13.66-.1,1.02-.34.52-.34.64-.61.79-.57.31.1.18,1.31.17,1.36-.11,1-.46,1.26-.28,1.81.13.39.31.3.51.79.23.58,0,.82.23,1.41.17.48.36.45.51.85.16.62.06,1.27-.28,1.81-.42.72-1.09,1.01-2.38,1.53-1.63.66-1.74.39-2.77.96-.84.34-1.56.93-2.03,1.7" fill="#e3995c"/><path id="Path_64" d="m238.08,103.63c.08.05.05.15.06.54.01.5.08.63-.03.74-.11.1-.28.12-.4.03-.09-.1.07-.25.03-.54-.04-.26-.2-.32-.17-.48.05-.21.37-.37.51-.28" fill="#e3995c"/><path id="Path_65" d="m237.12,103.97c.06.06.02.14,0,.48-.03.44.01.54-.08.62-.14.1-.33.09-.45-.03-.07-.12.11-.24.08-.51-.02-.24-.18-.3-.14-.43.13-.2.39-.26.59-.14" fill="#e3995c"/><path id="Path_66" d="m235.71,104.65c.07.08,0,.16.03.45.03.35.15.43.08.57-.09.18-.44.25-.54.14s.15-.37.03-.65c-.09-.22-.32-.23-.31-.34.01-.17.55-.34.71-.17" fill="#e3995c"/><path id="Path_67" d="m234.3,105.24s.04.07.08.51c.03.32.03.36,0,.42-.1.19-.42.27-.54.17-.15-.13.04-.53.11-.68s.24-.45.34-.42" fill="#e3995c"/><path id="Path_68" d="m232.91,105.3c.08.09.13.21.14.34.06.15.06.33,0,.48-.1.18-.35.3-.45.23s.05-.27,0-.65c-.04-.29-.15-.41-.08-.48s.28-.03.4.08" fill="#e3995c"/><path id="Path_69" d="m230.62,129.01c.25.16.18.57.11.76-.1.27-.36.56-.54.51s-.2-.37-.23-.59c-.03-.26-.05-.45.08-.59.15-.15.38-.18.57-.09" fill="#e3995c"/><path id="Path_70" d="m229.21,130.43c.24.17.04.68.03.71-.05.17-.16.31-.31.4-.24.13-.57.1-.62-.03-.05-.1.14-.18.28-.51.12-.29.06-.43.2-.54.12-.1.29-.11.42-.03" fill="#e3995c"/><path id="Path_71" d="m226.66,131.5c.18.17.1.5.06.71-.09.37-.24.4-.25.71-.01.24.08.33,0,.48-.09.18-.33.29-.42.23s.03-.26.06-.74c.01-.26,0-.53-.03-.79-.04-.36-.1-.46-.03-.57.17-.16.44-.17.62-.03" fill="#e3995c"/><path id="Path_72" d="m224.54,131.81c.17.01.34.4.26.71-.08.16-.18.3-.31.43-.11.14-.25.27-.4.37-.13.07-.3.18-.4.11-.13-.08-.08-.42.03-.65.07-.16.13-.17.37-.45.32-.38.35-.52.45-.51" fill="#e3995c"/><path id="Path_73" d="m221.86,131.36c.09.03.11.19.14.42.05.17.04.35-.03.51-.09.16-.31.31-.45.25-.18-.07-.2-.42-.14-.65.08-.31.34-.58.48-.54" fill="#e3995c"/><path id="Path_74" d="m219.32,130.17c.18.07.16.51.11.74-.02.16-.09.31-.2.42-.15.14-.42.22-.54.11-.08-.07-.06-.22,0-.51.02-.19.08-.38.2-.54.08-.1.28-.28.42-.23" fill="#e3995c"/><path id="Path_75" d="m208.63,118.07c.13.02.06.38.3.53s.48-.07.64.07c.1.13.12.31.04.45-.09.18-.28.24-.49.3s-.75.21-.94-.04c-.12-.15-.04-.39.08-.72.02-.06.21-.63.38-.6" fill="#e3995c"/><path id="Path_76" d="m207.61,117.27c.12.02.14.44.11.72-.01.14-.07.78-.34.83-.17,0-.32-.1-.38-.26-.02-.06-.06-.18.26-.79.18-.34.27-.5.34-.49" fill="#e3995c"/><path id="Path_77" d="m206.48,116.9c.1.32.21.38.19.6-.02.16-.1.36-.23.38-.16.02-.31-.27-.41-.45-.13-.23-.2-.49-.23-.75-.03-.24.01-.49.11-.72.01-.03.18-.37.3-.34.04.01.08.07.15.45.09.54.04.57.11.83" fill="#e3995c"/><path id="Path_78" d="m212.93,121.04c.17.02.28.43.23.75-.04.26-.22.58-.38.57s-.28-.36-.26-.64c.02-.34.25-.7.42-.68" fill="#e3995c"/><path id="Path_79" d="m213.76,122.66c.23.09.16.69.11.94-.01.06-.12.64-.3.64-.15,0-.27-.44-.3-.57-.1-.23-.1-.49,0-.72.11-.19.34-.36.49-.3" fill="#e3995c"/><path id="Path_80" d="m214.36,124.02h0c.1.29.1.61,0,.9-.07.17-.23.47-.38.45-.17-.03-.25-.47-.23-.79.01-.22.08-.44.19-.64" fill="#e3995c"/><path id="Path_81" d="m223.78,36.74c.44,1,.35,2.21,0,2.34-.27.1-.8-.46-1.06-.98-.33-.67-.16-1.14-.45-1.28-.34-.17-.68.41-1.28.3-.33-.06-.62-.29-.75-.6-.16-.42.16-.66.08-1.06-.11-.5-.77-.68-1.58-1.06-.84-.38-1.62-.86-2.34-1.43-.87-.76-1.83-2.15-1.43-2.79.25-.41,1.05-.35,2.64-.23,1.7.13,2,.48,2.11.68.2.36-.04.55.15.98.3.67,1.04.51,1.66,1.13.59.6.17,1.02.75,2.11.56,1.04,1.08.93,1.51,1.88" fill="#e3995c"/><path id="Path_82" d="m211.72,28.67c-.28.15-.33.8-.15,1.28.26.69.88.76.9,1.28-.01.29-.15.57-.38.75-.66.53-1.86-.01-2.34-.23-.82-.36-1.52-.93-2.03-1.66-.64-.94-.76-1.87-.98-3.69-.02-1.04-.12-2.07-.3-3.09-.27-.98-.73-1.91-1.36-2.71-.58-.75-.97-1.24-1.66-1.43-.79-.14-1.61-.04-2.34.3-.47.17-1.28.53-1.28.53-.33-.21-.68-.36-1.06-.45-.32-.12-.68-.09-.98.07-.22.19-.1.39-.3.83-.17.38-.56.87-.9.83-.16-.02-.19-.14-.68-.68-.46-.51-.55-.53-.6-.53-.29,0-.34.45-.9.9-.26.26-.61.42-.98.45-.55,0-.83-.5-1.06-.38-.18.1-.04.42-.15.9-.24.66-.69,1.21-1.28,1.58-.53.43-.56.31-.98.68-.5.4-.88.92-1.13,1.51-.16.64-.23,1.3-.23,1.96-.11.9-.39,1.77-.83,2.56-.68.29-4.53-3.55-3.74-4.97.22-.4,2.22-.75,3.29-1.66.6-.52,1.36-1.18,1.21-1.66-.11-.34-.58-.31-.68-.68-.09-.34.24-.62.6-1.13.43-.62.76-1.31.98-2.03.35-1.05.1-1.22.38-2.03.34-.82.89-1.55,1.58-2.11,1.7-1.69,2.55-1.66,3.01-2.87.29-.75.06-1.04.45-1.51.31-.37.75-.52,2.63-.75,1-.17,2.01-.25,3.01-.23,1.02-.02,2,.33,2.79.98.81.84.65,1.84,1.36,2.04.59.16,1-.46,1.43-.23.51.28.08,1.24.68,1.81.5.48,1.08.06,1.58.53.46.43.11.89.45,2.11.25.81.64,1.57,1.13,2.26.54.82.66.76.75,1.13.28,1.09-.73,1.82-.38,2.41.33.56,1.42.21,1.66.75.12.27-.12.46-.45,1.36-.3.55-.43,1.18-.38,1.81.12.54.51.88,1.13,1.43.78.69,1.29.82,1.28,1.21-.05.33-.28.59-.6.68-.53.15-.9-.4-1.21-.23" fill="#e3995c"/><path id="Path_83" d="m205.16,26.56c.44.24.7.71.68,1.21-.09.43-.53.48-.53.83,0,.39.56.51.53.83s-.6.62-1.06.53c-.16-.03-.15-.08-.9-.68-.28-.23-.68-.53-.68-.53,0,0-.45-.25-.45-.47,0-.27.7-.5.9-.57.56-.18.76-.09.9-.28.24-.33-.14-.87.06-1.02.14-.11.45.09.55.15" fill="#e3995c"/><path id="Path_84" d="m189.53,39.37c.02.21.31.34.69.51.93.42,1.38.25,1.58.56.26.43-.28,1.21-.34,1.3-.46.68-1.05.76-1.02,1.08.03.26.45.51.79.51.32,0,.41-.21.68-.16.33.05.63.44.57.68-.09.32-.79.2-.96.62-.07.21-.03.45.12.62.22.3.56.19.9.34.89.38.52,1.92,1.35,2.32.51.24.91-.22,1.41.11.38.26.26.6.57.91.53.53,1.38-.05,3.05,0,.79.02,1.95.06,2.49.79.36.5.13.91.51,1.18.54.41,1.64.04,2.26-.62.41-.43.84-1.22.56-1.64-.21-.31-.64-.15-2.09-.39-.52-.04-1.02-.2-1.47-.46-.51-.35-1.03-1-.85-1.35.22-.26.59-.35.9-.23.45.15.45.6.85.68.35.06.7-.13.85-.45.1-.36-.33-.71-.23-.85.09-.12.45.04.62.11,1.02.41,2.15.41,3.17,0,.42-.21.23-.28.85-.68.68-.35,1.38-.65,2.1-.9.79-.4,1.19-.59,1.36-.96.33-.77-.51-1.32-.23-2.2.07-.23.5-.61,1.35-1.36.88-.76,1.11-.91,1.36-1.35.15-.26.56-.99.28-1.41s-.96-.11-1.53-.68c-.21-.24-.37-.53-.45-.85-.16-.58.02-.82-.17-1.02-.27-.28-.75.09-1.41-.11-.38-.11-.51-.32-.9-.68-.61-.61-1.37-1.06-2.2-1.3-.75-.21-1.55-.09-2.2.33-.04.04-.07.06-.11.1.04.02-.1.3-.07.34.1.16.2.32.28.49.18.28.53.27,1.08.39.51.13,1,.32,1.47.57.54.31.99.76,1.3,1.3.21.39.5.91.29,1.35-.2.31-.54.52-.9.57-.55.1-1.12-.02-1.58-.34-.43-.31-.32-.51-.96-1.35-.31-.4-.64-.78-1.01-1.13-.36-.34-.58-.5-.99-.93-.37-.15-.77.06-1.05,0-.47-.02-.91-.22-1.24-.56-.26-.34-.39-.76-.34-1.18.05-.33.19-.64.4-.91.51-.73,1.05-.82,1.02-1.13-.03-.22-.29-.21-.85-.74-.34-.31-.58-.55-.57-.85.03-.23.16-.43.34-.56.41-.33.76-.09,1.24-.34.48-.25.82-.84.68-1.13-.17-.36-1.03-.1-1.18-.46-.09-.21.12-.57.39-.73.5-.3,1.04.14,1.25-.11.18-.21.01-.78-.34-1.01-.2-.14-.33-.06-1.07-.17-.63-.09-.71-.16-.73-.23-.12-.2.06-.51.28-.9.26-.46.46-.61.4-.73-.07-.14-.41-.08-.85-.06-1.03.06-1.08-.18-1.87-.11-.55.05-1.09.21-1.58.46-.83.42-1.14.92-1.41.79-.32-.16-.09-.95-.4-1.08-.18-.07-.38.17-1.07.73-.37.3-.67.51-1.13.85-.88.64-.99.63-1.18.9-.29.4-.16.53-.46,1.3-.27.7-.51,1.28-1.02,1.52-.63.31-1.13-.2-1.47.11-.46.43.04,1.73.12,1.92.23.59.41.62.46,1.08.02.46-.06.92-.23,1.35-.21.66-.34.71-.28.91.13.43.78.33,1.58.96.39.3.78.74.68.9-.12.21-.84-.22-1.24.11-.2.25-.29.58-.23.91.03.36.15.71.34,1.02.51.91,1.03,1.05.96,1.35-.06.25-.43.22-1.3.68-.52.28-.98.53-.96.79" fill="#e3995c"/><path id="Path_85" d="m187.75,30.26c.18-.33.06-1.1.24-1.42-.76-1.09-1.39-2.25-1.9-3.47-.06-.21-.2-.4-.38-.53-.91-.54-2.63,1.33-4.82,2.41,0,0-.87.43-1.65.9-.31.19-.61.38-.61.38,0,0-.11.07-.21.14-.79.54-1.55,1.12-2.28,1.75-.81.7-1.99,1.71-2.64,2.26-1.04,1.02-2.21,1.9-3.47,2.64-1.21.45-1.91.28-2.71,1.06-.4.47-.75.97-1.05,1.5-.76,1.15-1.14,1.72-1.21,1.81-.42.57-.8.88-2.79,2.26-2.07,1.43-3.1,2.15-3.47,2.34-2.24,1.15-3.28.98-3.62,1.88-.39,1.03.48,2.55,1.13,2.56.38,0,.51-.51.98-1.06,1.31-1.53,3.16-.88,5.2-1.96.76-.4.17-.32,2.71-2.79,1.57-1.52,3.28-3.01,4.75-4.45.44-.44.83-.83.83-.83.57-.58.85-.89,1.34-1.4.71-.74.9-.91,1.37-1.39,2.04-2.1,2.59-3.19,3.09-3.01.27.09.38.5.38.75,0,.58-.55.94-1.09,1.43-.7.79-1.35,1.62-1.96,2.49-.17.2-.67.81-1.88,2.19-2.78,3.13-3.11,3.3-3.09,3.88.07,1.75,3.28,3.4,4.26,2.71.37-.26.12-.66.57-1.81.54-1.42,1.14-1.39,1.51-2.6.34-1.14,0-1.83.45-2.07.2-.11.7.04,1.7.34.9.27.9.31,1.09.3.39-.01.61-.17,1.85-.98.76-.5,1.01-.66,1.13-.57.2.15-.29.76-.11,1.36.21.67,1.15.94,1.7,1.09,1.47.41,3.95.49,4.56-.68.27-.52.01-1,.49-1.85.17-.3.36-.59.57-.87.33-.41.47-.45.49-.64.04-.4-.54-.63-.98-1.17-.41-.53-.64-1.18-.64-1.85" fill="#e3995c"/><path id="Path_86" d="m140.12,120.82c.16,0,.31.63.62,1.86.38,1.56.29,1.93.62,2.83.35.96,1.12,2.37,1.64,2.26.52-.11.64-1.6.62-2.43-.05-1.17-.36-2.31-.91-3.34-1.18-2.52-1.85-2.29-2.37-3.96-.46-1.4-.46-2.9,0-4.3.46-1.2,1.03-1.36,1.13-2.43.12-1.23-.6-1.66-.68-2.88-.08-1.2.52-2,1.3-3.28,1.22-2.04,2.26-4.17,3.11-6.39.64-1.87,1.08-3.8,1.3-5.77.45-3.12.17-4.01,1.07-5.65.69-1.24,1.32-1.57,1.42-2.71.11-1.4-.72-2.17-.23-3.17.33-.68.8-.5,1.36-1.25.76-1.02.29-1.87.68-3.33.39-1.14,1.05-2.17,1.93-2.99,1.63-1.88,2.9-2.28,2.94-3.56.02-.54-.19-1.04.11-1.3.35-.29.88.13,1.47-.06.72-.23.94-1.19,1.19-1.86.42-1.13.81-1.12,3.05-3.68.58-.66,1.52-1.83,3.39-4.19,1.78-2.22,2.62-3.34,3.84-3.33.67,0,.99.34,1.58.11.74-.28.63-.97,1.53-2.09.81-1.01,1.23-.85,1.87-1.81.36-.64.62-1.32.79-2.04.98-2.92,1.14-2.72,1.18-3.45.1-1.61-.65-2.54-.11-3.05.3-.29.67-.12,1.36-.23.95-.24,1.8-.77,2.43-1.53.85-.83.73-1.08,1.3-1.64,1.92-1.88,5.42-1.03,6.44-.79,1.24.3,1.68.66,1.93,1.02.36.63.5,1.37.39,2.09-.09,1.13-.57,1.72-.28,2.04.17.19.44-.07.96.06.42.11.79.37,1.02.74.39.63-.11,1.12,0,1.92.14,1.05,1.16,1.7,2.32,2.43.87.7,1.94,1.09,3.05,1.13,1.05-.05,1.31-.55,2.1-.34.77.31,1.39.89,1.75,1.64.63,1,.35,1.23,1.01,2.15.38.52.82.99,1.3,1.41.6.49.97.61.96.9s-.39.38-1.13,1.13c-.53.53-.52.68-.51.73.07.39.9.28,1.18.85.1.29.1.61,0,.9-.15.77-.51.91-.45,1.3.06.44.52.44.96,1.01.43.59.59,1.32.46,2.04-.19.75-.65,1.39-1.3,1.81-.6.38-1.01.33-1.13.68-.19.48.43,1.08.68,1.41,1.16,1.53-.06,4.38-1.47,7.69-.8,2.24-1.99,4.33-3.51,6.17-1.18,1.35-3.17,3.17-3.84,3.79-1.61,1.48-2.41,2.08-2.88,3.39-.45,1.25-.03,1.55-.57,2.82-.4.95-.7.93-2.26,3-1.02,1.36-1.53,2.05-1.58,2.66-.07.93.37,1.5-.06,2.32-.21.41-.52.67-.45,1.08.06.35.32.34.51.73.14.28.11.51-.11,1.87-.14.88-.19,1.16-.06,1.24.23.14.63-.5,1.08-.39s.61.87.68,1.24c.16.94.12,1.91-.11,2.83-.17,1.13-.43,2.24-.79,3.33-.41.86-.77,1.75-1.07,2.66-.13.88-.21,1.77-.23,2.66-.14,1.82-.19,2.08,0,2.54.31.76,1.06,1.56,1.81,1.53.53-.03.55-.44,1.36-.91.96-.48,2.03-.71,3.11-.68.48.07.98,0,1.41-.23.46-.29.58-.73.73-.68.19.06.21.71.06,1.3-.21.84-.6.9-.74,1.53-.18.84.46,1.01.4,1.98-.12.84-.54,1.6-1.19,2.14-.55.46-.81.36-1.01.74-.33.62.28,1.14.33,2.2-.14.89-.42,1.75-.85,2.55-.33.92-.75,1.81-1.24,2.66-.35.44-.64.94-.85,1.47-.26.78-.23,1.53-.34,1.53s-.06-.76-.5-1.02c-.23-.1-.5-.1-.74,0-.35.14-.43.4-.74.79-.4.49-.9.9-1.47,1.19-.33.16-.83.42-1.08.23s-.01-.58-.29-.9c-.2-.19-.46-.29-.73-.29-.48-.03-.92.14-1.87.79-.73.48-1.43,1.01-2.09,1.58-.32.27-.66.52-1.02.74-.69.43-.84.38-.9.34-.22-.13-.05-.57-.11-1.19-.17-.77-.52-1.48-1.02-2.09-.31-.61-.76-1.15-1.3-1.58-.33-.13-.62-.34-.85-.62-.26-.39-.18-.71-.4-.79-.24-.1-.68.16-.79.5s.15.49.11.91c-.04.49-.46,1-.79.96-.3-.04-.51-.51-.56-.85-.09-.54.21-.73.06-1.13-.11-.32-.4-.54-.74-.56-.36.01-.58.4-.62.45-.24.41-.06.72-.28.9s-.66.04-.74,0c-.43-.23-.75-.61-.9-1.07-.48-1.05-1.07-.95-2.32-2.32-1.37-1.49-.76-1.72-2.32-3.61-.72-.88-1.25-1.32-1.3-2.14-.04-.71.29-1.23,0-1.53s-.76.1-1.36-.17c-.75-.34-.98-1.43-1.02-1.64-.17-.77.06-1.19-.23-1.41-.3-.24-.66.14-1.07-.06-.36-.17-.46-.64-.63-1.81-.23-1.71-.14-1.76-.28-2.37-.28-.82-.62-1.61-1.02-2.38-.35-.88-.61-1.79-.79-2.72-.19-.76-.27-1.54-.23-2.32.14-1.24.6-1.45.46-2.32-.15-.66-.48-1.27-.96-1.75-.54-.54-.93-.58-1.25-1.18-.08-.16-.41-.78-.16-1.13.3-.45,1.32-.22,1.8-.11,1.14.26,1.65,1.18,2.04.96.25-.14.18-.58.39-.62.18-.03.43.24.46.5.02.31-.29.43-.46.74-.26.5.17.91.51,2.15.35,1.27.11,1.68.62,2.26.33.38.53.29.79.68.43.63.11,1.14.29,1.93.14.67.48.76,1.86,2.32.72.81.43.56,1.64,1.97.7.8,1.36,1.63,1.98,2.49.29.38.52.79.68,1.24.13.58.18,1.16.17,1.75.08.58.66,1.3,1.8,2.72,1.18,1.45,1.48,1.6,1.59,2.26.07.43.03.88.33,1.08.32.14.69.1.96-.11.33-.23.46-.61.56-1.3.19-.82.23-1.66.11-2.49-.17-1.07-.45-1.11-1.18-3.17-.53-1.48-.55-1.9-.46-2.32.19-.82.83-1.66,1.3-1.58.41.07.61.81.85,1.75.32,1.23.19,1.52.4,2.49.26,1.06.7,2.08,1.3,2.99.45.74.98,1.42,1.58,2.04.49.5.8.73,1.19.73.46.02.89-.25,1.07-.68.07-.31-.17-.56-.45-.96-.5-.85-.88-1.76-1.13-2.72-.39-1.16-.29-1.29-.62-1.75-.37-.54-.71-.68-.74-1.08-.02-.49.47-.77.85-1.19.68-.75.61-1.52.85-3.5.29-2.42.47-2.01.68-4.01.18-1.72-.02-1.45.11-4.58.19-4.55.56-3.99.4-5.03-.13-.58-.05-1.18.22-1.7.2-.35.56-.7.74-.62.21.08-.04.65.11,1.41.28.9.89,1.67,1.7,2.14.46.35.86.66,1.13.51.3-.16.33-.83.11-1.3-.2-.41-.5-.44-.74-.73-.61-.74-.04-2.17.23-2.82.72-1.8,1.35-1.64,1.93-3.17.58-1.56.02-1.97.73-2.94.5-.68.98-.76,1.64-1.8.28-.39.47-.83.56-1.3.08-.58-.08-.82.11-1.08.29-.36.83-.06,1.35-.39.45-.28.38-.68.68-1.19.7-1.15,2.05-.71,3.11-1.8.55-.57.24-.76.9-2.04,1.04-2.02,1.95-1.85,2.49-3.34.46-1.26-.16-1.5.34-3.44.23-.82.53-1.61.9-2.37.77-1.73,1.07-1.86,1.24-2.83.23-.81.17-1.66-.17-2.43-.32-.62-.71-.73-.74-1.24.08-.59.36-1.13.79-1.53.47-.55.78-.65.74-.85-.06-.29-.86-.51-1.41-.23-.22.12-.33.27-.79,1.08-.29.48-.55.97-.79,1.47-.29,1.05.22,1.5-.17,1.97-.33.41-.77.14-1.35.69-.36.33-.29.53-.68.84-.45.38-1.08.55-1.19.4s.31-.45.68-1.19c.24-.58.4-1.18.5-1.8.37-1.55.46-1.81.29-1.98-.21-.21-.59-.06-1.36.11-.27.06-2.94.69-3.17.23-.09-.2.36-.4,1.02-1.3.76-1.03.71-1.52,1.3-1.8.56-.26.82.04,1.25-.23.64-.41.63-1.49.62-2.2.13-1-.13-2.02-.73-2.83-.88-.9-2.32-.76-3.62-.62-1.57.16-3.09.65-4.46,1.44-3.26,1.9-4.49,4.48-5.15,4.13-.43-.23-.22-1.53-.05-2.54.26-1.65.73-2,.62-3.11,0-.82-.38-1.58-1.02-2.09-.65-.41-1.46-.45-2.14-.11-.45.28-.81.7-1.02,1.18-.7,1.19-1.72,2.92-3.22,3.56-1.06.45-1.42-.03-2.43.56-.67.5-1.23,1.14-1.64,1.87-.9,1.05-1.61,2.26-2.09,3.56-.23.88-.19,1.48-.74,1.98-.44.4-.77.28-1.3.62-.71.59-1.19,1.41-1.35,2.32-.4,1.16-.92,2.28-1.3,3.45-.61,1.81-1.41,3.56-2.38,5.2-1.85,3.07-3.07,3.18-3.5,5.32-.03.12-.19,1.06-.51,2.94-.09.71-.22,1.41-.39,2.1-.46,1.52-1.13,1.72-1.93,3.11-.93,1.65-.21,1.78-1.36,4.97-.47.97-.81,2-1.02,3.06.02.79-.09,1.57-.33,2.32-.44.94-.98.93-1.58,1.75-.19.26-.54.81-.74,4.01-.19,2.97.07,3.01-.29,3.79-.64,1.38-1.79,1.9-1.58,2.82.13.57.59.52.73,1.19.05.79-.13,1.57-.51,2.26-.19.47-.37.79-.23.96.26.17.57.2.86.1.11-.03.18-.07.21-.04.05.06-.26.35-.51.79-.17.28-.28.58-.33.91.01.47.17.92.45,1.3.26.6.47,1.23.62,1.87.35,1.23-.09,2.17-.51,3.84-.35,1.48-.55,3-.62,4.52-.09,1.87.2,3.73.85,5.48.44,1.53,1.26,2.93,2.38,4.07.82.58,1.48,1.36,1.92,2.27.23.56.19.85.51,1.13.72.62,1.79,0,2.32.62.29.35,0,.59.28.96.41.53,1.17.29,2.77.79.61.19.75.31.79.46.15.51-1.02,1.25-1.19,1.35-.96.6-2.96,1.34-4.18.45-.63-.46-.74-1.12-1.47-1.24-.35-.04-.7.02-1.02.17-.73.34-.9,1.01-1.13.96-.26-.06-.21-1.03-.22-1.47-.05-1.58-1.09-2.59-2.49-4.24-2.66-3.14-3.99-4.7-4.41-6.56-.38-1.65.16-1.83-.28-4.24-.39-2.15-.96-2.77-1.47-4.41-1.33-4.37-.01-8.88.46-8.88m4.69-12.89c.11,0,.17-.15.51-.74.79-1.38.97-1.39,1.08-1.87.17-.74-.01-1.7-.4-1.81-.44-.12-1.19.9-1.47,1.87-.34,1.19-.02,2.52.29,2.54" fill="#e3995c"/><path id="Path_87" d="m162.84,50.61c-2.15,2.45-3.21,3.17-3.84,5.2-.4,1.29-.6,3.01-1.58,3.28-.63.17-.96-.43-1.58-.34-1.81.26-3.1,5.91-1.92,6.56.44.24,1.13-.29,2.49-1.36,3.48-2.75,3.55-4.39,6.33-6.22,1.69-1.11,2-.72,3.51-1.92,2.24-1.79,3.55-4.25,3.17-4.64-.31-.3-1.6.8-1.92.45-.25-.26.15-1.29.9-1.81.64-.44,1.34-.37,1.36-.57.02-.27-1.31-.37-1.36-.79-.04-.39,1.01-.91,1.92-1.13,1.03-.25,1.37,0,1.92-.34.54-.41.9-1.02.98-1.7.29-1.7-.99-4.09-2.45-4.3-1.91-.27-2.49,3.44-7.91,9.61" fill="#e3995c"/><path id="Path_88" d="m142.38,65.53c.15.11,2.12-2.66,6.15-6.94,2.29-2.44,4.76-5.07,5.27-4.7.41.29-.56,2.46-1.47,3.96-1.03,1.54-2.25,2.94-3.62,4.18-1.71,1.71-3.22,3.61-4.52,5.65-1.33,2.24-.7,2.33-2.38,6.67,0,0-2.76,7.16-6.22,9.95-.57.46-1.18.87-1.81,1.24-1.21.68-1.59.63-2.49,1.13-1.1.64-2.03,1.53-2.71,2.6-.93,1.36-.63,1.76-1.36,3.05-.69,1.22-1,.96-4.18,3.84-1.32,1.1-2.47,2.4-3.39,3.84-.08.14-.36.59-.61,1.12-.9,1.95-1.34,4.08-1.31,6.23.02,9.79.28,11.35-.45,14.25-.86,3.4-2.5,6.35-2.94,6.22-.36-.11.24-2.19.57-5.99.3-4.03.34-8.07.11-12.1-.18-2.72-.42-4.02.45-5.43.78-1.26,1.93-1.78,2.38-3.5.29-1.13-.08-1.37.11-2.37.35-1.82,1.8-2.24,4.18-4.52,1.59-1.6,3.03-3.34,4.3-5.2.65-.85,1.22-1.76,1.7-2.71.53-1.07.59-1.53,1.02-2.49.55-1.2,1.26-2.31,2.1-3.33,3.33-4.33,5-6.51,5.12-7.07.49-2.22-.49-3.3.56-5.88.33-.76.75-1.48,1.24-2.15,1.56-2.24,2.55-2.75,4.98-5.2,1.81-1.84,3.44-3.84,4.86-5.99.36-.56.68-1.15.97-1.75.25-.62.57-1.21.96-1.75,2.66-3.67,7.08-5.84,7.8-5.09.6.62-.79,3.7-3.05,4.75-.83.39-1.11.29-1.92.68-2.13,1.02-2.99,3.32-3.39,4.3-2.35,5.69-7.22,10.36-7.01,10.51" fill="#e3995c"/><path id="Path_89" d="m181.61,73.34c.32.51.23,1.18-.23,1.58-.4.34-.83.06-1.24.34-.6.4-.43,1.49-.45,2.15-.05,1.63-1.26,2.64-2.83,4.3-1.71,1.79-3.26,3.72-4.64,5.77-2.68,4.25-2.79,9.39-2.15,9.61.49.16,2.09-2.25,2.83-4.75.45-1.52.31-2.18,1.02-3.39.94-1.61,2.55-2.77,2.94-2.49.23.17-.07.76-.68,2.71-.94,3-.72,3.14-1.36,4.75-.95,2.38-1.4,2-1.92,3.73-.53,1.75-.04,2.08-.45,5.09-.12,1.32-.42,2.61-.9,3.84-.9,2.16-2.38,3.79-2.71,3.62-.28-.14.54-1.36.23-3.05-.24-1.32-.92-1.57-1.47-2.71-.89-1.84.23-2.56.45-7.35.13-2.85-.22-3.45.45-4.64.62-.76,1.04-1.65,1.24-2.6.11-.98-.27-1.12-.23-1.92.1-1.89,2.28-2.19,3.17-4.41.58-1.45-.25-1.58.23-3.62.09-.38.89-3.63,3.5-4.97.74-.38.71-.14,2.71-.9,1.54-.59,2.16-.96,2.49-.68" fill="#e3995c"/><path id="Path_90" d="m184.1,84.41c-.19-.19-1.6.61-2.6,1.81-.05.06-.09.11-.13.16-.96,1.22-1.45,2.75-1.22,2.89.44.29,4.33-4.48,3.96-4.86" fill="#e3995c"/><path id="Path_91" d="m140.01,84.07c.08.03.06.27.03.67-.05,1.42-.29,2.83-.7,4.19-.8,2.22-2.38,4.24-2.71,4.07s.54-2.57,1.13-4.18c.79-2.16,1.98-4.84,2.26-4.75" fill="#e3995c"/><path id="Path_92" d="m133.34,91.19c.25.18-.72,1.93-.9,2.26-.76,1.36-1.22,1.71-1.58,2.38-.8,1.47-.22,2.9.11,4.86.75,4.38-.26,8.46-.68,8.48-.31.01-.66-2.28-.79-3.39-.26-2.27.08-2.55-.11-5.09-.18-2.33-.5-2.63-.23-3.84.28-1.07.78-2.07,1.47-2.94,1.03-1.48,2.46-2.89,2.71-2.71" fill="#e3995c"/><path id="Path_93" d="m200.6,120.36c.36,0,.83,3.32,1.02,6.9.38,7.11.57,10.67-1.47,13.57-.14.2-1.48,2.08-3.17,4.41-.72.84-1.3,1.79-1.7,2.83-.61,1.89.15,2.5-.11,4.41-.32,2.26-1.73,3.87-3.5,5.88-1.64,1.86-1.99,1.61-3.05,3.16-.99,1.36-1.68,2.93-2,4.59,0,.02.02.13-.03.16-.17.1-.64-.84-1.13-.9-.78-.11-1.57,2.01-2.94,4.86-1.45,3.02-2.18,4.54-3.05,5.2-1.4,1.07-3.3,1.56-3.28,2.6,0,.47.41.82.23,1.13s-.79.22-1.47.23c-1.51.01-3.34.58-3.5,1.36-.12.58.76,1.01.57,1.47-.15.37-.82.35-1.7.45-1.12.12-2.23.38-3.28.79-1.1.47-2.07,1.21-2.83,2.15-.55.63-.97,1.36-1.24,2.15-.59,1.81.22,2.43-.45,3.84-.41.76-.99,1.42-1.7,1.92-.92.74-1.26.66-1.81,1.13-.98.85-.92,2.02-1.24,4.07-.05.31-.89,5.41-1.81,5.43-.54.01-1.15-1.72-1.24-3.28-.06-.96.08-1.71,1.24-4.97,1.08-3.04,1.62-4.55,2.15-5.65.59-.99,1.05-2.05,1.36-3.16.43-1.3.35-2.71-.23-3.96-.66-1.19-1.82-2.02-3.17-2.26-1.11-.17-1.39.32-2.15,0-1-.43-.79-1.4-2.04-2.94-.43-.53-1.61-1.98-2.83-1.81-.68.09-.8.62-1.36.56-.75-.07-.89-1.05-1.92-2.26-1.1-1.29-1.54-.89-2.6-2.15-1.11-1.32-.66-1.82-1.7-2.71-.92-.79-1.64-.71-2.15-1.58-.24-.53-.36-1.11-.34-1.7-.19-1.43-1.08-2.09-2.71-3.96-1.29-1.31-2.4-2.8-3.28-4.41-.77-1.46-1.16-3.1-1.13-4.75.04-1.27.37-2.71.68-2.71.38,0,.27,2.19,1.47,5.2.39,1.31,1.09,2.51,2.04,3.5.91.85,1.42.82,3.05,2.15.7.54,1.34,1.15,1.92,1.81,1.33,1.55,1.07,2.07,2.15,3.28.72.8.72.45,3.17,2.26.94.77,1.92,1.49,2.94,2.15.68.41,2.28,1.38,2.49,1.13.24-.29-1.2-2.29-3.28-3.73-2.2-1.52-3.29-1.13-4.52-2.71-.59-.76-.58-1.16-1.58-2.49-.55-.72-1.16-1.4-1.81-2.04-1.28-1.51-2.2-3.29-2.71-5.2-1.46-4.02-1.86-3.09-4.86-9.95-1.78-4.07-2.67-6.14-2.71-8.03-.04-1.7-.12-3.39-.11-5.09.08-.99,0-1.98-.23-2.94-.52-1.77-1.31-1.77-1.7-3.28-.26-1.41-.1-2.86.45-4.18.55-1.63.98-1.56,1.02-2.49.03-.73-.22-1.24-1.92-4.07-1.21-2.01-1.5-2.45-1.36-2.6.28-.29,1.98.82,3.17,1.92.91.85,1.67,1.84,2.26,2.94.48.84.83,1.76,1.02,2.71.1.82.14,1.66.11,2.49.11,1.48.45,2.93,1.02,4.3.76,1.87,1.2,1.74,1.47,3.05.2,1.12.24,2.26.11,3.39-.1,1.89-.03,3.78.23,5.65.28,1.76.78,4.94,3.17,6.67,1.03.75,1.17.33,2.11,1.07,2.09,1.64,1.12,3.51,3.21,6.28,1.22,1.63,2.01,1.59,2.49,3.05.35,1.08.25,2.12,1.02,2.6.43.22.91.27,1.38.17,2.62-.23,3.93,5.24,8.23,7.97,2.92,1.86,5.76,1.53,5.88,2.83.1,1.11-1.96,1.6-2.19,3.6-.12,1.02.25,2.31,1.06,2.62.72.27,1.56-.34,2.15-.79,1.21-.97,2.18-2.21,2.83-3.62.76-1.43,2.65-2.91,6.44-5.88,3.82-2.99,4.73-3.04,5.99-4.98.56-1.06,1.24-2.05,2.04-2.94,1.18-1.21,1.97-1.44,2.71-2.71.68-1.16.91-2.49.68-2.6-.16-.08-.55.4-1.47,1.58-.4.51-2.09,2.69-2.49,2.49-.37-.18.25-2.43,1.13-4.41,1.13-2.07,2.37-4.07,3.73-5.99,1.34-1.19,2.57-2.49,3.69-3.89,1.1-1.73.68-2.17,1.85-3.69,1-1.3,1.51-1.25,2.49-2.38,1.28-1.48,1.1-2.37,2.15-4.86,1.41-3.33,2.27-2.99,3.33-5.8,1.19-3.16.88-5.61,1.19-5.62" fill="#e3995c"/><path id="Path_94" d="m174.04,142.86c.21.22-.61.84-.9,2.26-.27,1.29.25,1.5,0,2.94-.15.84-.33.75-.79,2.37-.31,1.07-.43,1.82-.57,1.81-.22-.02.01-2.09-.57-2.26,0,0-.2-.06-1.47,1.13,0,0-.84.63-1.13.45-.25-.16.18-.8,0-1.47-.23-.89-1.26-.76-2.26-1.7-1.13-1.05-1.32-2.58-1.53-4.28-.12-.98-.1-1.79.06-1.83.26-.05.56,2.01,1.47,2.15.69.1,1.25-.97,1.58-.79.37.2-.39,1.52.23,2.49.35.52.95.82,1.58.79.99-.07,1.55-1.09,1.7-1.36.34-.62.15-.81.45-1.36.57-1.05,1.91-1.6,2.15-1.36" fill="#e3995c"/><path id="Path_95" d="m133.45,70.61c-.18.63-1.86,1.83-2.24,1.36-.27-.35-1.52,1.54-1.61,2.15-.17.8-.61,1.52-1.24,2.03-1.12,1.09-2.13,1.13-3.73,1.81-1.4.63-2.69,1.47-3.84,2.49-1.49,1.22-2.82,2.63-3.96,4.18-1.23,1.6-2.33,3.31-3.28,5.09-2.31,4.11-1.59,4.14-2.94,5.65-.75.84-1.82,1.79-1.81,3.17,0,.52.17,1.2.45,1.24.36.06.75-.89,1.24-1.92,1.02-.78,1.9-1.72,2.6-2.79,1.44-2.08,1.82-3.08,3.39-5.24.97-1.33.65-1.35,2.26-3.96,1.58-2.19,3.44-4.17,5.54-5.88.95-.8,1.55-1.41,1.81-1.24.11.07.13.28-.11,1.47-.12.77-.31,1.52-.56,2.26-.42.95-1.04,1.34-2.15,2.26-1.2,1.02-2.33,2.12-3.39,3.28-1.07,1.09-2.05,2.26-2.94,3.51-.34.49-.56.84-.68,1.03-.6.96-1.1,1.98-1.47,3.04-.07.21-.79,2.32-.45,2.49.29.14,1.26-1.23,1.7-1.92.97-1.53.87-2.04,1.7-3.5.63-1.07,1.39-2.05,2.26-2.94.86-.91,1.76-1.78,2.71-2.6,2.82-2.54,3.01-2.43,3.5-3.28.54-1.21.99-2.46,1.36-3.73.19-.78.45-1.54.79-2.26.52-.89.91-1.01,2.71-2.83.6-.54,1.13-1.15,1.58-1.81.46-.8.73-1.68.79-2.6" fill="#e3995c"/><path id="Path_96" d="m108.24,101.94c-.18-.07-.66-.08-1.92,1.57l-1.02,3.86-1.24,5.2-.45,5.2,1.7-4.68,1.58-3.91,1.36-3.45c.21-1.02.66-3.51,0-3.78" fill="#e3995c"/><path id="Path_97" d="m124.46,162.99c-.41-.99-.51-3.34-1.3-5.03-.37-.8-1.47-1.42-1.92-2.26-.44-.82-.78-1.7-1.02-2.6-.6-1.43-1.1-2.9-1.47-4.41-.89-3.67-1.3-3.18-1.92-6.11-.39-2.02-.66-4.06-.79-6.11-.12-1.42-.38-2.82-.79-4.18-.31-1.04-.58-1.93-.9-1.92-.62.01-1,3.31-1.13,4.41-.39,3.34-.64,5.54.45,7.8.49.77.95,1.56,1.36,2.38.54,1.44.81,2.98.79,4.52.04.62.12,1.35,2.04,6.78,1.9,5.41,2.86,8.12,3.62,9.72,2.07,4.36,3.11,6.54,5.31,8.71,1.6,1.57,2.9,2.26,4.41,4.52.67,1.07,1.43,2.09,2.26,3.05,2,2.28,2.76,2.22,3.05,2.15.48-.13.83-.53.9-1.02,0-.55-.74-.64-1.02-1.47-.22-.67.14-.98-.11-1.36-.37-.55-1.28-.12-2.15-.45-1.09-.43-1.24-1.72-1.92-3.28-.94-2.14-4.65-4.29-5.65-7.35" fill="#e3995c"/><path id="Path_98" d="m99.19,139.02c.28.11-.59,3.33-1.47,5.88-.94,2.72-1.32,2.99-2.15,5.54-.98,3.03-1.17,4.89-1.36,4.86-.21-.03-.25-2.62.34-5.43.54-2.27,1.33-4.47,2.38-6.56.51-1.14,1.97-4.4,2.26-4.3" fill="#e3995c"/><path id="Path_99" d="m120.33,182.66c-.44-1.29-.89-1.24-2.04-3.17-.75-1.38-1.39-2.82-1.92-4.3-1.09-2.59-1.64-3.88-2.15-4.86-1.63-3.16-2.29-3.22-2.94-5.31-.47-1.52-.17-1.61-.68-4.3-.15-.81-1.04-5.47-1.81-5.43-.45.03-.81,1.67-.79,3.05.03,1.88.74,2.09,1.02,4.07.35,2.55-.66,3.52.23,4.86.63.96,1.21.58,1.81,1.58.34.56.28.91.57,4.18.09,1.09.14,1.49.45,1.92.46.63.88.49,1.7,1.24.62.49,1.05,1.16,1.24,1.92.14.77-.2,1.13.11,1.58s.78.24,1.25.68c.33.31.35.65.56,2.6.02.69.13,1.38.34,2.04.27.6.65,1.14,1.13,1.58.81,1.07,1.46,2.25,1.92,3.51,1.5,3.29,1.1,3.74,2.38,6.33.93,1.9,1.4,2.84,2.49,3.73,1.54,1.26,2.32.78,3.84,2.26.96.93,1.37,1.82,2.37,1.92.53.05.71-.17,1.47-.34,1.09-.22,2.23-.14,3.28.23,1.35.48,2.53,1.34,3.39,2.49.35.42.65.88.9,1.36.96,1.8.51,2.57,1.24,4.64.4,1.15,1.05,2.2,1.92,3.05.49.47,1.13,1.07,1.7.9.71-.2.91-1.47,1.02-2.15.2-1.76-.04-3.55-.68-5.2-.77-2.37-1.29-3.99-2.6-4.41-.64-.21-1.23-.05-1.47-.45-.38-.65.8-1.62.45-2.26-.26-.5-1.14-.27-2.6-.45-1.35-.17-2.65-.59-3.84-1.24-1.66-.96-1.56-1.72-3.05-2.26" fill="#e3995c"/><path id="Path_100" d="m202.53,154.4c.37.15-1.38,2.75-1.24,7.01.05,1.64.39,3.41-.68,5.2-.31.5-.69.96-1.13,1.36-1.61,1.58-2.54,3.24-4.41,6.56-1.97,3.51-1.77,4.11-3.73,7.24-.69,1.09-1.44,2.14-2.24,3.15-.2.25-2.29,2.88-2.51,2.73-.36-.25,5.06-8.08,4.52-8.48-.25-.19-1.86,1.19-2.94,2.6-.13.17-.63.84-1.36,1.7-1.08,1.29-1.29,1.38-1.47,1.36-.66-.08-1.22-1.67-1.02-3.05.16-.84.55-1.63,1.13-2.26,1.02-1.28,2.24-2.39,3.62-3.28,1.76-1.06,2.71-2.64,6.78-10.18,4.69-8.67,6.27-11.81,6.67-11.65" fill="#e3995c"/><path id="Path_101" d="m202.53,168.98c.64.21.63,2.89-.11,5.09-.49,1.02-.91,2.08-1.24,3.17-.33,1.43-.11,1.81-.56,2.6-.73,1.27-1.66.9-2.38,2.04-.96,1.53-.02,3.37-.9,3.84-.44.24-.79-.15-1.24.11-.72.42-.57,1.85-.56,2.6.01,1.37-.75,2.79-2.26,5.65-1.41,2.63-3.2,5.03-5.31,7.12-3.22,3.2-4.83,4.81-7.12,5.2-1.08.03-2.11.43-2.94,1.13-.79.81-.47,1.36-1.36,2.83-1,1.67-1.67,1.4-2.26,2.83-.46,1.12-.24,1.74-.9,2.38-.49.38-1.08.61-1.7.68-1.82.54-2.69,2.86-3.39,4.75-1,2.67-.56,3.36-1.58,7.46-.27,1.09-1.06,4.24-1.47,4.18-.51-.07-.16-5.11-.11-5.77.25-3.48.38-5.22,1.02-7.12.4-1.19,1.77-3.43,4.52-7.91,1.66-2.71,1.61-2.52,2.15-3.5,1.95-3.52,1.79-4.33,3.17-5.65,1.26-1.04,2.67-1.88,4.18-2.5,1.95-.96,2.42-.97,3.39-1.47.92-.47,1.82-1.13,5.54-6.56,2.94-4.29,4.41-6.43,4.64-7.35.4-1.62.59-3.9,2.15-4.64.66-.31,1.33-.23,1.7-.79.44-.68-.16-1.37-.23-2.49-.04-.72.15-1.38,2.71-4.98,2.07-2.9,2.32-2.99,2.49-2.94" fill="#e3995c"/><path id="Path_102" d="m202.07,192.72c.42.1-.52,5.19-.57,5.43-.8,4.3-1.35,3.64-1.58,5.99-.03.34-.1,1.15-.45,1.24s-.9-.61-1.13-1.13c-.63-1.4.29-2.9,1.24-4.98,1.88-4.07,2.19-6.63,2.49-6.56" fill="#e3995c"/><path id="Path_103" d="m197.89,207.41c-.12,0-.14,1.95-1.14,2.68-.14.1-.29.19-.44.26-.7.31-1.13.08-1.47.23-.64.29-.41,1.7-.57,2.6-.24,1.4-1.52,2.24-4.41,3.84-7.87,4.38-8.88,4.04-9.84,5.77-.41.73-1.05,2.27-2.49,2.71-.68.21-1.07.03-1.7.34-.89.6-1.5,1.54-1.7,2.6-.88,2.34-2.32,4.44-4.18,6.1-2.12,2.02-4.61,2.92-4.41,3.39.09.21.71.35,1.16.35.38,0,.58-.1.65,0,.17.23-.92,1.03-.79,1.36.28.68,5.54-.9,5.54-.9,5.49-1.66,8.4-2.54,11.76-4.98,2.15-1.57,3.59-2.64,4.41-4.63.83-2.02.14-2.88,1.13-4.98.69-1.46,1.3-1.66,3.96-4.41,2.41-2.5,3.62-3.75,4.18-4.98,1.07-2.31,1.19-4.95.34-7.35" fill="#e3995c"/><path id="Path_104" d="m153.91,206.51c.2-.06,1.5,2.57,2.15,5.99.22,1.14.73,4.27-.68,12.55-.67,3.93-1.88,9.69-2.6,9.61-.36-.04-.1-1.44-1.02-3.73-.84-2.1-2.07-3.45-1.7-3.84.29-.3,1.1.39,1.58,0,.64-.52.01-2.45-.05-2.65-.24-.73-.41-.79-.4-1.19.03-.88.91-1.1,1.36-1.92.69-1.27-.18-3.05-.9-4.52-1-2.05-1.95-2.59-1.7-3.62.21-.83,1.09-1.51,1.58-1.36.64.2.23,1.71,1.24,2.49.58.44,1.48.53,1.7.23.3-.42-.9-1.33-1.7-3.5-.36-.98-.61-2.13-.34-2.26.31-.16,1.06,1.18,1.47,1.02.58-.23-.21-3.22,0-3.28" fill="#e3995c"/><path id="Path_105" d="m101.79,204.93c.54.09.45,1.4,1.24,4.97.55,2.47.76,2.56,1.24,4.98.44,1.7.56,3.46.34,5.2-.02.11-.42,2.6-1.02,2.6-.36,0-.47-.91-1.13-2.6-1.11-2.85-2.34-4.24-1.81-4.86.33-.38.96-.04,1.24-.45.33-.48-.28-1.29-.91-2.6-.65-1.14-1.03-2.42-1.13-3.73.02-1.81,1.25-3.62,1.92-3.5" fill="#e3995c"/><path id="Path_106" d="m96.48,204.14c.47-.1,1.45,2.41,1.92,4.41.58,2.43.71,5.32.23,5.43-.46.1-1.43-2.25-1.92-4.18-.65-2.59-.72-5.55-.23-5.65" fill="#e3995c"/><path id="Path_107" d="m88.33,194.08c.31-6.22.91-11.43,1.47-15.38,1.2-8.38,2.9-15.94,3.17-15.94.15.03-.36,2.68-.68,7.91-.16,2.81-.18,5.12-.22,9.72-.01,1.27-.02,3.15.11,5.54.02.44.05.99.11,1.7.21,2.52.56,4.4.68,5.09.72,4.01,1.33,8.58,1.58,10.4.68,5.08.39,4.65.9,7.46.41,2.99,1.21,5.92,2.37,8.7,1.51,3.34,2.5,3.61,3.85,6.78.89,2.21,1.46,4.53,1.7,6.9.16,1.31.23,2.63.22,3.96,0,1.25.02,4-.45,4.07-.38.06-.55-1.68-1.93-3.51-.77-1-1.73-1.85-2.82-2.49-3.67-2.39-6.29-8.62-7.24-10.85-1.99-4.71-2.3-8.42-2.83-14.59-.38-5.16-.38-10.33,0-15.49m3.28,19.45c.18,2.55.83,5.04,1.93,7.35,1,2.02,2.46,4.02,2.82,3.84.41-.19-.81-2.94-2.49-9.05-.75-2.75-1.27-4.97-1.58-6.33-1.35-5.85-1.62-8.36-1.8-8.36-.3.03.39,6.11,1.13,12.55" fill="#e3995c"/><path id="Path_108" d="m79.47,207.39c.46-4.05,1.21-8.05,2.27-11.98.63-2.21.7-1.82,1.83-5.5.28-.9.5-1.65.65-1.63.25.04.19,2.05,0,3.62-.34,2.82-1.1,4.11-1.8,6.34-1.03,3.44-1.38,7.05-1.02,10.62.22,2.05.42,1.35,1.13,5.32.81,4.52.53,5.34,1.35,9.27.73,3.67,1.91,7.24,3.5,10.63,1.92,4.17,3.48,7.06,5.77,11.42,0,0,2.12,4.04,5.62,10.1,1.26,2.18,2.79,4.77,5.24,5.84.42.14.8.37,1.13.68,1.32,1.28.83,3.39.79,5.88,0,.47.26,2.31.79,5.99.98,6.74,1.36,6.32,1.36,8.7-.06,2.67-.59,5.32-1.58,7.8-.75,2.28-1.24,2.96-1.93,3.17-1.22.38-2.63-.83-4.3-2.27-2.6-2.23-4.18-3.84-4.18-3.84-.51-.51-1.14-1.18-1.7-1.02-.77.22-.8,1.83-1.13,1.81-.31,0-.41-1.47-.79-3.17-.62-2.72-1.22-2.64-1.47-4.64-.18-1.44-.38-3.1.56-4.41.52-.71,1.3-1.2,1.13-1.69-.14-.43-.82-.33-1.13-.9-.3-.56.16-.99-.11-1.36-.39-.54-1.52.21-2.49-.33-.65-.37-.85-1.13-1.13-2.15-.43-1.58-.06-1.87-.34-3.05-.29-1.27-.79-1.26-2.49-4.07-.56-.81-1.01-1.68-1.35-2.59-.41-1.4-.16-2.17-.11-4.07,0-1.78-.15-3.56-.45-5.32-.2-1.52-.38-2.35-.91-4.98-1.01-5.04-1.52-7.56-1.7-8.93-.35-2.65-.46-4.9-.56-6.9-.14-2.76-.07-3.34-.23-5.54-.24-3.23-.57-4.49-.79-6.44-.32-2.89-.03-5.4.56-10.4m5.04,29.31c.83,2.8.5,4.26.79,7.24.45,3.62,1.4,7.16,2.82,10.51,1.35,3.59,2.22,5.84,4.3,8.26,1.61,1.88,4.47,4.46,5.43,3.84.55-.65.55-1.61,0-2.26-.29-.24-.65-.36-1.02-.34-2-.2-4.15-4.23-4.4-8.03-.13-1.94.35-2.09.11-4.4-.12-1.44-.46-2.85-1.02-4.18-1.22-2.76-2.4-2.25-3.62-4.63-1.48-2.9-.44-5.03-2.49-7.35-.14-.16-.94-1.08-1.24-.9-.33.19.13,1.55.34,2.26" fill="#e3995c"/><path id="Path_109" d="m86.64,189.33c-.18-.03-.55,1.57-2.15,7.24-1.01,3.59-1.13,3.89-1.38,5.11-.74,3.52-1.1,5.32-.54,7.44.31,1.19.67,1.57,1.13,3.5.27,1.15.46,2.33.56,3.51.34,3.84-.49,4.72.45,6.22.48.76,1.03,1.07,1.36,2.15.19.7.23,1.43.11,2.15-.22,2.63,2.43,3.4,3.84,7.24.98,2.67.76,5.17,1.7,5.31.52.08.96-.65,1.36-.45.44.22.09,1.23.34,2.26.35,1.48,1.69,1.99,2.71,2.94,1.67,1.55,1.45,3.27,2.26,5.99,1.62,5.46,5.83,9.71,6.78,9.27.35-.16.14-.88.11-3.05-.05-4.39.76-4.9.45-6.78-.38-2.35-1.79-2.41-5.54-7.01-.89-1.1-2.22-3.07-4.86-7.01-1.76-2.41-3.34-4.94-4.75-7.57-.48-1.1-.87-2.18-2.33-8.46-1.19-5.12-1.79-7.69-1.94-8.69-.63-4.81-.72-9.68-.26-14.51.3-4,.8-6.74.57-6.78" fill="#e3995c"/><path id="Path_110" d="m79.29,233.65c.09-.91.05-1.82-.11-2.71-.44-2.79-.67-3.54-.9-5.09-.23-1.48-.35-2.87-.57-5.43-.21-2.43-.2-2.99-.45-3.05-.82-.19-2.81,5.53-3.28,6.9-.52,1.5-1.19,3.56-2.71,9.61-2.03,8.03-2.1,9.33-3.52,13.47-.3.68-.52,1.4-.66,2.13.23.1,3-5.03,4.75-10.29.69-1.88,1.21-3.82,1.55-5.8.03-.68.16-1.35.37-2,.23,0,.4,3,.45,5.31.13,5.94-.51,9.27,0,9.38.37.08,1.19-1.63,1.58-3.16.55-2.14.11-3.19.79-5.88.05-.21.53-2.07.79-2.04.28.04.16,2.26.11,3.16-.25,3.34-.71,6.66-1.36,9.95-.48,3.18-.7,6.39-.68,9.61.13,2.11.51,4.2,1.13,6.22.27.99.53,1.71.79,1.7.37-.02.62-1.55.68-2.6.04-1.61-.19-3.21-.68-4.75-.16-.72-.12-.91.45-6.67.83-8.28.8-8.34,1.02-9.04.53-1.17.76-2.45.68-3.73-.17-1.25-.71-1.9-.57-3.39.07-.76.24-.86.34-1.81" fill="#e3995c"/><path id="Path_111" d="m61.09,245.97c.64.45-.38,3.15-1.24,4.75-.32.6-.89,1.42-2.04,3.05-.72.88-1.37,1.83-1.92,2.83-.73,1.73-.16,2.3-.9,3.96-.6,1.35-1.07,1.18-1.81,2.49-1.14,2.02-.35,3.04-1.13,5.31-.88,2.57-2.97,4.42-3.39,4.18-.32-.18.43-1.52,1.13-4.63.25-1.11.51-2.96,1.02-6.67.47-3.37.46-3.6.79-4.18.48-.84,1.52-1.81,3.62-3.73,1.24-1.14,1.56-1.36,1.92-2.04.7-1.32.28-1.98.9-3.16.78-1.49,2.53-2.51,3.05-2.15" fill="#e3995c"/><path id="Path_112" d="m63.24,250.38c.6.35-1,4.04-1.36,4.86-1.95,4.5-5.21,9.2-5.99,8.82-.69-.34.52-4.67,2.49-8.14,1.71-3.03,4.28-5.88,4.86-5.54" fill="#e3995c"/><path id="Path_113" d="m64.26,257.16c.56.15-.05,4.03-.11,4.41-.71,4.46-2.42,8.48-2.83,8.37-.11-.03-.05-.36.23-3.39.36-3.93.36-4.45.68-5.54.55-1.91,1.61-3.96,2.04-3.84" fill="#e3995c"/><path id="Path_114" d="m42.32,247.33c1.19.58,1.43,2.3,1.81,4.97.24,1.68.35,2.55-.12,3.51-.37.67-.78,1.31-1.24,1.92,0,0-.74-.03-1.13,0-.63.02-1.23.26-1.7.68-.49.55-.48,1.37-.45,2.6.02.86.13,1.32-.11,1.47-.35.21-.93-.53-1.36-.34-.46.2-.38,1.32-.34,1.81.25,3.18.72,5.26.57,5.31s-1.04-1.63-2.04-4.52c-.9-2.45-1.54-4.99-1.92-7.58-.35-2.82-.27-5.68.23-8.48.1-.56.44-2.23,1.24-2.38.71-.13,1.38,1.01,1.81.79.48-.24,0-1.8.34-1.92.3-.11.66,1.2,1.81,1.81,1.09.58,1.67-.12,2.6.34" fill="#e3995c"/><path id="Path_115" d="m33.39,235c1.4-.19,2.81,1.86,3.39,2.71.52.8.91,1.68,1.16,2.6.27.8.32,1.16.19,1.25-.29.19-1.24-1.13-1.7-.9-.4.2-.02,1.38-.45,1.58-.3.14-.57-.38-1.13-.34-.64.04-.85.75-1.24.68-.49-.09-.38-1.21-.9-1.36-.47-.14-1.15.62-1.47,1.13-.51.81-.33,1.28-.68,1.47-.68.38-2.61-.74-2.71-2.04-.09-1.05,1.1-1.34,2.94-3.62,1.65-2.05,1.67-3.04,2.6-3.17" fill="#e3995c"/><path id="Path_116" d="m17.34,224.89c1.07.17,2.67,1.27,3.73,1.7,1.2.48,1.57-.03,2.71.4,1.16.43.8,1.57,2.15,2.6,1.41,1.08,2.42.29,3.5,1.47.48.7.86,1.46,1.13,2.26.43.99.52,1.41.34,1.58-.25.24-.76-.25-1.24,0-.5.26.19,1.85-.4,2.6-.46.59-1.41-.09-1.82.52-.16.24.01-.05-.27,1.06-.09.51-.24,1-.45,1.47-.7.62-2.85.01-4.07-1.36-.6-.68-.86-1.42-1.24-1.36s-.28.88-.79,1.24c-.72.51-1.79-.54-4.07-1.36-1.47-.51-2.99-.88-4.52-1.13-1.06-.16-1.65-.17-2.15-.68-.56-.58-.36-1.16-.68-2.6-.39-1.76-1.19-1.26-1.57-2.94-.29-1.31-.27-3.12.43-3.84.92-.7,2.14-.87,3.22-.46.57.15,1.16.54,1.29.36.2-.28-.45-1.16-.22-1.6.17-.32,1.05-.35,1.7,0,.51.34,1.06.6,1.64.79" fill="#e3995c"/><path id="Path_117" d="m164.99,245.52c-.07-.4-1.25-.36-4.07-.79-2.93-.45-3.57-.79-3.96-1.36s-.36-1.1-.9-1.36c-.48-.22-.74.08-1.7.11-.38.01-1.81.06-2.26-.68-.33-.54.07-1.17-.23-1.36-.37-.23-1.1.67-1.47.45s.2-1.19-.23-1.7c-.54-.65-2.36-.12-3.39.34-1.18.52-1.36.97-1.92.9-.31-.03-1.08-.26-2.15-3.05-1.33-3.48-.49-4.05-1.7-5.99-.81-1.3-1.33-1.28-2.6-3.28-.25-.54-.64-1.01-1.13-1.36-1.14-.68-2.08.06-2.83-.57-.79-.67-.11-1.82-.9-2.49-.73-.61-1.5.19-2.71-.34s-1.07-1.58-2.26-2.15c-.97-.46-1.49.03-2.83,0-1.43-.03-1.74-.62-5.65-2.83-2.67-1.5-3.04-1.51-3.84-2.38-1.09-.96-1.77-2.29-1.92-3.73,0-.89.32-1.33,0-2.04-.38-.83-1.1-.83-1.7-1.58-.53-.84-.74-1.85-.57-2.83.12-2.63-1.47-3.43-2.94-8.03-1.53-4.79-.66-6.6-2.71-8.48-1.07-.98-2.63-1.69-2.94-1.36s.68,1.59,1.36,2.71c1.85,3.07,1.82,5.68,2.26,8.59.52,3.45,1.78,6.45,4.3,12.44,3.63,8.63,4.65,7.62,5.88,11.76.39,1.3.99,3.76,2.94,4.75.77.39,1.35.35,1.92,1.02.71.84.43,1.65,1.36,3.17.22.36.67,1.1,1.02,1.02.43-.1.16-1.33.79-1.7.6-.35,1.83.16,2.26,1.02s-.2,1.53.23,2.04c.44.53,1.28-.06,2.71.11,1.31.15,2.19.86,3.96,2.26,1.3,1.03,1.41,1.42,1.36,1.7-.17.49-.61.84-1.13.9-.65.09-1.11-.37-1.24-.23-.2.23.93,1.36.68,1.7-.18.25-.9-.28-1.58,0-.75.31-.96,1.38-1.02,1.7-.16,1.36.2,2.74,1.02,3.84,1.69,2.86,2.66,2.37,4.41,5.09,1.07,1.67,1.56,3.19,2.71,3.28.65.05,1.05-.38,1.7-.11.28.12.45.3,1.24,1.58.96,1.57.97,1.72.9,1.81-.23.29-1.38-.13-2.15-.57-.98-.56-1.36-1.17-1.7-1.02-.38.17-.06,1.01-.57,1.36-.24.16-.45.07-1.47,0-.41-.08-.83-.08-1.24,0-.88.75,3.3,8.03,5.43,7.46.51-.13.79-.69,1.7-.79.84-.1,1.14.31,1.7.34,1.62.08,2.14-3.34,5.2-6.45.97-1.06,2.12-1.94,3.38-2.62,2.06-1.06,3.03-.76,3.85-1.9.72-1.01.37-1.79,1.47-3.05.38-.44.68-.64.79-1.13.21-.97-.69-1.5-.45-2.04.31-.7,1.99-.09,4.08-1.02.19-.09,1.54-.69,1.46-1.13" fill="#e3995c"/></g></g></g><g id="_06" isolation="isolate"><text transform="translate(246.21 262.6) rotate(-90)" fill="#0c1f6a" font-family="MyanmarMN-Bold, &apos;Myanmar MN&apos;" font-size="126" font-weight="700" isolation="isolate"><tspan x="0" y="0">06</tspan></text></g></svg>